<?xml version="1.0" encoding="UTF-8"?>
<svg version="1.1" xmlns="http://www.w3.org/2000/svg" width="200" height="200">
<path d="M0 0 C66 0 132 0 200 0 C200 66 200 132 200 200 C134 200 68 200 0 200 C0 134 0 68 0 0 Z " fill="#F0F0F0" transform="translate(0,0)"/>
<path d="M0 0 C0.88204102 -0.00531738 1.76408203 -0.01063477 2.67285156 -0.01611328 C20.75655538 0.17626655 36.70663666 7.94835174 49.75 20.1875 C54.04668865 24.73800148 57.25632441 29.91050836 60.375 35.3125 C60.97828125 36.33150391 60.97828125 36.33150391 61.59375 37.37109375 C65.85814849 45.14069858 68.96754096 55.43526673 67.375 64.3125 C62.93724982 78.47103628 49.58279749 89.02832075 37 95.75 C33.375 97.3125 33.375 97.3125 29.375 97.3125 C29.82777379 93.69030969 30.34026052 90.42803207 31.39453125 86.921875 C32.92469346 80.88499416 32.70392657 74.75203099 32.6875 68.5625 C32.70361328 67.36367187 32.71972656 66.16484375 32.73632812 64.9296875 C32.74521312 48.54575141 28.14262947 35.529513 16.7734375 23.59375 C5.80688612 13.16302361 -8.03836244 8.40910462 -22.625 5.3125 C-21.625 3.3125 -21.625 3.3125 -19.859375 2.4609375 C-13.22430934 0.39530385 -6.89541803 0.0205725 0 0 Z " fill="#F23935" transform="translate(98.625,33.6875)"/>
<path d="M0 0 C6.38954912 2.99460072 11.95638721 6.53466395 16.8046875 11.7109375 C16.8046875 12.0409375 16.8046875 12.3709375 16.8046875 12.7109375 C15.45890625 13.00484375 15.45890625 13.00484375 14.0859375 13.3046875 C0.10565109 16.65533466 -12.24948028 22.25449498 -23.1953125 31.7109375 C-24.71125 32.79375 -24.71125 32.79375 -26.2578125 33.8984375 C-34.86171076 41.20815607 -40.45257978 53.08231228 -41.9453125 64.1484375 C-42.05287441 65.66774948 -42.13473898 67.18902774 -42.1953125 68.7109375 C-42.27265625 70.04705078 -42.27265625 70.04705078 -42.3515625 71.41015625 C-42.70587364 82.46761632 -40.01466154 93.08416037 -37.1953125 103.7109375 C-49.12217858 97.28877884 -56.16811241 83.72211339 -60.0078125 71.2109375 C-60.41916277 69.71511833 -60.8164906 68.21532375 -61.1953125 66.7109375 C-61.36659668 66.10886475 -61.53788086 65.50679199 -61.71435547 64.88647461 C-64.3984307 52.74546225 -63.18792282 38.03374221 -58.1953125 26.7109375 C-57.77121094 25.69 -57.34710938 24.6690625 -56.91015625 23.6171875 C-45.53629258 -1.47501314 -25.35856579 -10.23022825 0 0 Z " fill="#7B1A66" transform="translate(96.1953125,48.2890625)"/>
<path d="M0 0 C3.40574436 1.44668787 5.30041821 3.25646839 7.75 6 C20.45683598 18.9363519 37.96617298 26.97134792 56.125 27.25 C73.04971459 27.05613156 86.7481325 20.44405206 99 9 C101.00068988 6.86475045 102.90985136 4.70154606 104.7578125 2.43359375 C105.16773438 1.96050781 105.57765625 1.48742187 106 1 C106.33 1 106.66 1 107 1 C108.22997212 12.37724215 100.39476137 24.40868176 93.67578125 32.95703125 C82.56799987 45.70395149 66.86034295 55.97703847 49.61669922 57.1640625 C36.07360744 57.76967868 22.06509319 57.93822613 11 49 C2.78294298 41.01771604 -0.9303528 27.08965089 -1.1328125 15.95703125 C-1.13542652 14.57552085 -1.13278305 13.19399095 -1.125 11.8125 C-1.12886719 11.11447266 -1.13273437 10.41644531 -1.13671875 9.69726562 C-1.13029965 6.3240273 -1.0496821 3.22402359 0 0 Z " fill="#FBBC57" transform="translate(58,109)"/>
<path d="M0 0 C0.33 0 0.66 0 1 0 C1.03738281 1.02738281 1.07476562 2.05476563 1.11328125 3.11328125 C1.68987703 16.23361493 3.87503202 27.64894807 11 39 C19.25155445 46.51808294 31.64863862 47.33687575 42.29296875 47.203125 C57.82634611 46.35198104 73.99114198 39.0855748 85 28 C90.81573668 21.24925742 95.41121863 14.15140292 99 6 C100.29544307 9.9100001 99.40686004 11.95158172 97.6003418 15.63476562 C97.05567261 16.68180664 97.05567261 16.68180664 96.5 17.75 C96.12979736 18.46865234 95.75959473 19.18730469 95.37817383 19.92773438 C87.64030373 34.52511279 74.5437143 43.16848214 59.3125 49.03515625 C45.76965606 53.17111001 27.4856497 53.06023891 14.64453125 46.86328125 C5.81831774 41.7669066 2.1334294 33.4002882 -1 24 C-1.09354378 22.23890604 -1.13069971 20.47451282 -1.1328125 18.7109375 C-1.13410156 17.68742187 -1.13539062 16.66390625 -1.13671875 15.609375 C-1.13285156 14.54203125 -1.12898438 13.4746875 -1.125 12.375 C-1.12886719 11.29992187 -1.13273437 10.22484375 -1.13671875 9.1171875 C-1.13542969 8.09625 -1.13414063 7.0753125 -1.1328125 6.0234375 C-1.13168457 5.08419434 -1.13055664 4.14495117 -1.12939453 3.17724609 C-1 1 -1 1 0 0 Z " fill="#F2B53D" transform="translate(60,115)"/>
<path d="M0 0 C0.88204102 -0.00531738 1.76408203 -0.01063477 2.67285156 -0.01611328 C20.75655538 0.17626655 36.70663666 7.94835174 49.75 20.1875 C54.04668865 24.73800148 57.25632441 29.91050836 60.375 35.3125 C60.97828125 36.33150391 60.97828125 36.33150391 61.59375 37.37109375 C66.11000392 45.59957153 68.12732856 54.98362581 67.375 64.3125 C66.715 64.9725 66.055 65.6325 65.375 66.3125 C65.28863281 65.38050781 65.20226562 64.44851562 65.11328125 63.48828125 C63.63331802 50.05999101 59.93917657 38.99546453 51.375 28.3125 C50.74464844 27.5184375 50.11429687 26.724375 49.46484375 25.90625 C38.85046578 13.24496415 23.55917153 6.57253815 7.375 4.3125 C1.84868545 3.90977262 -3.17306259 4.34117782 -8.625 5.3125 C-7.60019531 5.78300781 -6.57539062 6.25351562 -5.51953125 6.73828125 C-4.15878577 7.3670395 -2.7981125 7.99595404 -1.4375 8.625 C-0.76396484 8.93373047 -0.09042969 9.24246094 0.60351562 9.56054688 C4.33362231 11.2891329 7.89094253 13.11382295 11.375 15.3125 C11.045 16.3025 10.715 17.2925 10.375 18.3125 C9.82714844 17.93738281 9.27929688 17.56226562 8.71484375 17.17578125 C-0.84992741 11.0014493 -11.57903598 7.79220621 -22.625 5.3125 C-21.625 3.3125 -21.625 3.3125 -19.859375 2.4609375 C-13.22430934 0.39530385 -6.89541803 0.0205725 0 0 Z " fill="#FA4946" transform="translate(98.625,33.6875)"/>
<path d="M0 0 C3.40574436 1.44668787 5.30041821 3.25646839 7.75 6 C20.45683598 18.9363519 37.96617298 26.97134792 56.125 27.25 C66.30859352 27.14477343 75.22156099 24.93272794 84.07421875 19.890625 C84.70972656 19.59671875 85.34523438 19.3028125 86 19 C86.66 19.33 87.32 19.66 88 20 C85.10384987 24.14929201 82.70584236 25.93825069 78 27.75 C76.96875 28.15734375 75.9375 28.5646875 74.875 28.984375 C59.82521733 34.30087431 42.28753359 31.85642652 28.19384766 25.13916016 C20.128047 21.16972772 13.61001899 16.29169781 7.20703125 10.00390625 C5.08114321 7.80282585 5.08114321 7.80282585 2 7 C1.67 13.6 1.34 20.2 1 27 C0.67 27 0.34 27 0 27 C-0.84173357 21.88947475 -1.154155 16.98751299 -1.125 11.8125 C-1.12886719 11.11447266 -1.13273437 10.41644531 -1.13671875 9.69726562 C-1.13029965 6.3240273 -1.0496821 3.22402359 0 0 Z " fill="#FDC46E" transform="translate(58,109)"/>
<path d="M0 0 C6.47594558 3.03509229 11.73584504 6.67191176 16.8046875 11.7109375 C15.3196875 12.2059375 15.3196875 12.2059375 13.8046875 12.7109375 C13.8046875 12.0509375 13.8046875 11.3909375 13.8046875 10.7109375 C11.4946875 10.3809375 9.1846875 10.0509375 6.8046875 9.7109375 C6.8046875 9.0509375 6.8046875 8.3909375 6.8046875 7.7109375 C6.0209375 7.4634375 5.2371875 7.2159375 4.4296875 6.9609375 C0.66730648 5.66356474 -2.97102062 4.16836915 -6.6328125 2.61328125 C-11.90993571 0.75502597 -17.13486358 0.52874785 -22.6953125 0.4609375 C-23.96375 0.43515625 -25.2321875 0.409375 -26.5390625 0.3828125 C-34.91792696 1.13476187 -40.62550249 6.84148581 -46.1953125 12.7109375 C-49.7458649 17.44059125 -52.74846934 22.33819668 -54.9453125 27.8359375 C-55.3578125 28.7846875 -55.7703125 29.7334375 -56.1953125 30.7109375 C-57.6803125 31.2059375 -57.6803125 31.2059375 -59.1953125 31.7109375 C-56.65185533 20.54394937 -51.07652184 12.28124471 -43.1328125 4.2109375 C-42.39140015 3.45417725 -42.39140015 3.45417725 -41.63500977 2.68212891 C-30.29887844 -8.38565831 -13.64672204 -5.50540131 0 0 Z " fill="#872672" transform="translate(96.1953125,48.2890625)"/>
<path d="M0 0 C-2.64 0.99 -5.28 1.98 -8 3 C-8 3.66 -8 4.32 -8 5 C-9.05058594 5.49628906 -10.10117188 5.99257812 -11.18359375 6.50390625 C-19.14628711 10.33157693 -26.27576158 14.19072275 -33 20 C-34.010625 20.721875 -35.02125 21.44375 -36.0625 22.1875 C-43.76040268 28.72750089 -48.16710605 38.53217023 -51 48 C-51.66 48 -52.32 48 -53 48 C-54.55810358 56.48982597 -54.55810358 56.48982597 -56 65 C-56.33 65 -56.66 65 -57 65 C-57.65753749 47.83096563 -52.24993517 34.02624072 -41 21 C-32.30371514 11.79216897 -13.44181756 -3.36045439 0 0 Z " fill="#721F60" transform="translate(106,60)"/>
<path d="M0 0 C4.90510481 4.90510481 5.19127034 13.28384868 5.36328125 19.8828125 C5.36197065 22.29693399 5.34484064 24.71109479 5.3125 27.125 C5.31572266 28.33542969 5.31894531 29.54585937 5.32226562 30.79296875 C5.28209702 37.50477791 4.74983711 43.51653977 3 50 C14.98197195 45.50676052 23.61712916 37.01831005 29.06640625 25.4765625 C30.39951575 21.94019672 30.79085283 18.76464897 31 15 C33.61533431 19.66720228 34.07372038 23.75642036 33 29 C30.80728518 33.09571862 28.04380064 36.5048772 25 40 C24.06414062 41.10214844 24.06414062 41.10214844 23.109375 42.2265625 C17.88304237 47.91404213 10.0987936 54.66610901 2.13671875 55.1875 C1.07904297 55.0946875 1.07904297 55.0946875 0 55 C0.2165625 54.11183594 0.433125 53.22367188 0.65625 52.30859375 C3.88996239 37.47244109 5.40399929 20.86790522 0.65625 6.20703125 C0 4 0 4 0 0 Z " fill="#DF3934" transform="translate(131,74)"/>
<path d="M0 0 C3.82524236 1.450954 5.19090966 3.38181932 7 7 C7 7.66 7 8.32 7 9 C7.66 9 8.32 9 9 9 C9.65161012 10.87300025 10.29602195 12.7485055 10.9375 14.625 C11.29714844 15.66914062 11.65679687 16.71328125 12.02734375 17.7890625 C16.69920347 33.21182831 14.9161694 50.87838967 10 66 C10.66 66.33 11.32 66.66 12 67 C9.525 67.495 9.525 67.495 7 68 C7.45277379 64.37780969 7.96526052 61.11553207 9.01953125 57.609375 C10.54969346 51.57249416 10.32892657 45.43953099 10.3125 39.25 C10.32861328 38.05117187 10.34472656 36.85234375 10.36132812 35.6171875 C10.3668562 25.42342018 9.16555604 15.78121243 3.875 6.875 C3.35679688 5.98554687 2.83859375 5.09609375 2.3046875 4.1796875 C1.87414062 3.46039063 1.44359375 2.74109375 1 2 C0.67 1.34 0.34 0.68 0 0 Z " fill="#E83935" transform="translate(121,63)"/>
<path d="M0 0 C0 3 0 3 -1.9140625 5.015625 C-16.29988971 16.87253158 -32.92325769 23.97839174 -51.7578125 23.31640625 C-60.64701956 22.44890532 -69.9332174 19.65864142 -77 14 C-77.8046875 11.3046875 -77.8046875 11.3046875 -78 9 C-77.071875 9.9075 -76.14375 10.815 -75.1875 11.75 C-65.47875898 20.09714929 -52.20180542 20.66859208 -40 20 C-25.14078531 18.20757362 -10.55336774 10.55336774 0 0 Z " fill="#A2730C" transform="translate(146,142)"/>
<path d="M0 0 C0.33 0 0.66 0 1 0 C0.98428955 0.5576001 0.9685791 1.1152002 0.95239258 1.68969727 C0.66253507 13.59586942 1.03622234 24.40512348 4 36 C4.21269531 36.88945312 4.42539062 37.77890625 4.64453125 38.6953125 C5.07406896 40.46908692 5.5319959 42.23598455 6 44 C2.27885429 41.68462045 -0.61229661 39.71420527 -3 36 C-2.01 36 -1.02 36 0 36 C-0.66 35.0925 -1.32 34.185 -2 33.25 C-6.62904184 25.09172413 -4.04377773 13.6923633 -2 5 C-1.36845134 3.31971178 -0.71179629 1.64789813 0 0 Z " fill="#752062" transform="translate(53,108)"/>
<path d="M0 0 C1.29544307 3.9100001 0.40686004 5.95158172 -1.3996582 9.63476562 C-1.762771 10.33279297 -2.12588379 11.03082031 -2.5 11.75 C-3.05530396 12.82797852 -3.05530396 12.82797852 -3.62182617 13.92773438 C-10.95439625 27.76052025 -24.070707 37.9849885 -39.11328125 42.65625 C-42.07138878 43.19520127 -45.00339269 43.05762706 -48 43 C-44.74312741 41.26561725 -41.41060131 40.04897471 -37.9375 38.8125 C-29.06702284 35.42758167 -19.3185532 30.33173228 -13 23 C-12.32065196 21.33846202 -11.65505586 19.6712642 -11 18 C-9.91808365 16.36646619 -8.79039534 14.76256488 -7.625 13.1875 C-4.57528344 8.94081745 -2.1941988 4.73946941 0 0 Z " fill="#EDAF30" transform="translate(159,121)"/>
<path d="M0 0 C11.763709 1.27526934 22.51443065 7.87871015 31 16 C31 16.66 31 17.32 31 18 C31.66 18 32.32 18 33 18 C34.6203364 20.03062341 36.10101986 22.04722813 37.5625 24.1875 C37.97435547 24.76564453 38.38621094 25.34378906 38.81054688 25.93945312 C41.09777407 29.25237632 42.56792078 31.97484092 43 36 C42.67 35.34 42.34 34.68 42 34 C41.34 34 40.68 34 40 34 C38.9921875 32.49609375 38.9921875 32.49609375 37.875 30.4375 C35.00388405 25.62965494 31.27806055 22.52767493 27 19 C25.19006277 17.39455087 23.61355569 15.81525015 22 14 C22 13.01 22 12.02 22 11 C21.28714844 10.72027344 20.57429688 10.44054688 19.83984375 10.15234375 C13.09201107 7.41422733 6.47752991 4.32629914 0 1 C0 0.67 0 0.34 0 0 Z " fill="#CB2F2B" transform="translate(88,38)"/>
<path d="M0 0 C4.90510481 4.90510481 5.19127034 13.28384868 5.36328125 19.8828125 C5.36197065 22.29693399 5.34484064 24.71109479 5.3125 27.125 C5.31572266 28.33542969 5.31894531 29.54585937 5.32226562 30.79296875 C5.28209702 37.50477791 4.74983711 43.51653977 3 50 C11.19617623 46.92643391 17.39264875 41.61624856 24 36 C21.02186586 43.27988346 12.74203451 49.21788308 6 53 C5.01 53 4.02 53 3 53 C3 53.66 3 54.32 3 55 C2.01 55 1.02 55 0 55 C0.2165625 54.11183594 0.433125 53.22367188 0.65625 52.30859375 C3.88996239 37.47244109 5.40399929 20.86790522 0.65625 6.20703125 C0 4 0 4 0 0 Z " fill="#C92B27" transform="translate(131,74)"/>
<path d="M0 0 C1 2 1 2 0.6171875 3.7421875 C-1.65622569 10.2752591 -4.27808156 16.6416846 -7 23 C-7.66 23 -8.32 23 -9 23 C-10.55810358 31.48982597 -10.55810358 31.48982597 -12 40 C-12.33 40 -12.66 40 -13 40 C-13.57181711 25.06921984 -9.85555712 11.51508392 0 0 Z " fill="#631652" transform="translate(62,85)"/>
<path d="M0 0 C0.33 0 0.66 0 1 0 C1.1959375 1.05316406 1.391875 2.10632813 1.59375 3.19140625 C4.26424996 16.43727151 9.42530502 26.85775894 17 38 C16.01 38.495 16.01 38.495 15 39 C12.57223333 37.70519111 11.23032326 36.64161481 10.2890625 34.01953125 C9.80217802 32.0261274 9.39608139 30.01341375 9 28 C8.34 28 7.68 28 7 28 C1.80984026 18.51112017 -0.34288855 10.80098945 0 0 Z " fill="#5F134F" transform="translate(37,106)"/>
<path d="M0 0 C-1.13566406 0.41121094 -2.27132812 0.82242188 -3.44140625 1.24609375 C-8.04410896 2.9737558 -12.48972572 4.97239509 -16.9375 7.0625 C-18.08702148 7.5894043 -18.08702148 7.5894043 -19.25976562 8.12695312 C-23.32540788 9.76962836 -23.32540788 9.76962836 -26 13 C-26.89976563 13.43957031 -27.79953125 13.87914063 -28.7265625 14.33203125 C-32.16938744 16.08631078 -34.55720024 18.06009212 -37.375 20.6875 C-38.24898438 21.49574219 -39.12296875 22.30398437 -40.0234375 23.13671875 C-40.67570312 23.75160156 -41.32796875 24.36648437 -42 25 C-42 22 -42 22 -40.26953125 20.01953125 C-31.1687796 11.84477023 -13.29570209 -3.6751083 0 0 Z " fill="#3C0930" transform="translate(106,60)"/>
<path d="M0 0 C0.33 0 0.66 0 1 0 C1.3745984 5.33133797 1.70981459 10.66338851 2 16 C2.05671875 17.04285156 2.1134375 18.08570313 2.171875 19.16015625 C2.35699626 25.59311997 1.20073595 30.96107575 -1 37 C-0.34 37.33 0.32 37.66 1 38 C-1.475 38.495 -1.475 38.495 -4 39 C-3.54575092 35.36600735 -3.01729505 32.05999221 -2 28.53125 C-0.57114503 22.92504198 -0.5402777 17.25717326 -0.375 11.5 C-0.33632812 10.39140625 -0.29765625 9.2828125 -0.2578125 8.140625 C-0.16424757 5.42724203 -0.07850517 2.71385339 0 0 Z " fill="#EE5A56" transform="translate(132,92)"/>
<path d="M0 0 C7.45146833 -0.56002685 12.46012462 0.47618516 19 4 C20.13953125 4.60199219 21.2790625 5.20398437 22.453125 5.82421875 C25.64983945 7.5234044 28.8281666 9.25475627 32 11 C31.67 11.99 31.34 12.98 31 14 C30.45214844 13.62488281 29.90429688 13.24976563 29.33984375 12.86328125 C21.89654165 8.05841794 14.41242156 5.57980928 6 3 C3.9981958 2.33877056 1.99753552 1.67401505 0 1 C0 0.67 0 0.34 0 0 Z " fill="#D83D38" transform="translate(78,38)"/>
<path d="M0 0 C2 2 2 2 2.04345703 4.71801758 C1.94919434 5.84876709 1.85493164 6.9795166 1.7578125 8.14453125 C1.66113281 9.37880859 1.56445312 10.61308594 1.46484375 11.88476562 C1.35269531 13.18091797 1.24054687 14.47707031 1.125 15.8125 C0.91788186 18.36056456 0.71210044 20.90873822 0.5078125 23.45703125 C0.41129395 24.59116455 0.31477539 25.72529785 0.21533203 26.89379883 C0.02700365 29.61046778 -0.04130776 32.27845426 0 35 C-1.85275651 31.8372508 -2.25639706 29.50704735 -2.265625 25.859375 C-2.26820312 24.87066406 -2.27078125 23.88195312 -2.2734375 22.86328125 C-2.26570313 21.83589844 -2.25796875 20.80851562 -2.25 19.75 C-2.25773437 18.73808594 -2.26546875 17.72617188 -2.2734375 16.68359375 C-2.25810318 10.77221375 -1.7071033 5.66324745 0 0 Z " fill="#863074" transform="translate(36,80)"/>
<path d="M0 0 C12.28913858 1.33222963 21.70655345 8.27892951 31 16 C30.67 16.66 30.34 17.32 30 18 C29.18917969 17.40832031 28.37835938 16.81664063 27.54296875 16.20703125 C20.62931631 11.24365264 13.88685652 7.28619022 6 4 C3.98051664 3.03330932 1.99177531 2.02280354 0 1 C0 0.67 0 0.34 0 0 Z " fill="#7E1411" transform="translate(88,38)"/>
<path d="M0 0 C4.53863194 3.73769689 5.00147952 9.47394143 6 15 C6.29797202 18.14225036 6.25563679 20.83010381 6 24 C5.34 24.66 4.68 25.32 4 26 C3.89042969 25.03320312 3.78085938 24.06640625 3.66796875 23.0703125 C2.7383148 15.43656865 1.5724812 8.28869674 -1 1 C-0.67 0.67 -0.34 0.34 0 0 Z " fill="#F24844" transform="translate(160,74)"/>
<path d="M0 0 C0.33 0 0.66 0 1 0 C1.1513641 9.57918536 -2.68068525 18.38567076 -9.23046875 25.3828125 C-10.10638672 26.18332031 -10.10638672 26.18332031 -11 27 C-9.3312285 22.6331213 -7.24379602 18.60702154 -5.0234375 14.5 C-3.90627406 11.77105115 -3.97184856 9.91367371 -4 7 C-2.90418054 4.47080954 -1.47282306 2.34731174 0 0 Z " fill="#F5BB50" transform="translate(163,113)"/>
<path d="M0 0 C1.90608098 3.21182149 2.22266247 5.53882603 2.125 9.25 C2.10695312 10.14203125 2.08890625 11.0340625 2.0703125 11.953125 C2.03550781 12.96632813 2.03550781 12.96632813 2 14 C1.01 14 0.02 14 -1 14 C-1 14.66 -1 15.32 -1 16 C-1.66 16 -2.32 16 -3 16 C-3 16.99 -3 17.98 -3 19 C-4.98 19.99 -4.98 19.99 -7 21 C-5.8454417 17.92117788 -4.50166668 15.07125457 -2.9375 12.1875 C-0.84296414 8.09965121 -0.32577904 4.5609065 0 0 Z " fill="#C42A26" transform="translate(162,89)"/>
<path d="M0 0 C1.63056328 3.00219592 2.59314415 5.8816322 3.4375 9.1875 C4.75864991 14.2024772 6.29526205 19.10341228 8 24 C7.34 24 6.68 24 6 24 C1.5317315 15.65703372 -0.16252592 9.42650339 0 0 Z " fill="#DC9E1E" transform="translate(60,127)"/>
<path d="M0 0 C0.33 0 0.66 0 1 0 C2.32 5.28 3.64 10.56 5 16 C-1.75 11.5 -1.75 11.5 -4 8 C-3.01 8 -2.02 8 -1 8 C-0.67 5.36 -0.34 2.72 0 0 Z " fill="#832C70" transform="translate(54,136)"/>
<path d="M0 0 C0.69140625 1.59375 0.69140625 1.59375 1 4 C-0.22265625 7.09375 -0.22265625 7.09375 -2.0625 10.5 C-2.65160156 11.6240625 -3.24070313 12.748125 -3.84765625 13.90625 C-6.31276397 17.44956274 -8.31410887 18.86688854 -12 21 C-10.43888411 17.69136633 -8.5578675 14.68885462 -6.5625 11.625 C-4.12317378 7.82879857 -1.88286394 4.09799798 0 0 Z " fill="#D59918" transform="translate(159,121)"/>
<path d="M0 0 C0.66 0 1.32 0 2 0 C2.33 0.99 2.66 1.98 3 3 C2.67 3.33 2.34 3.66 2 4 C1.84344973 5.48638992 1.74933057 6.97949127 1.68359375 8.47265625 C1.64169922 9.37177734 1.59980469 10.27089844 1.55664062 11.19726562 C1.51732422 12.14279297 1.47800781 13.08832031 1.4375 14.0625 C1.39431641 15.01189453 1.35113281 15.96128906 1.30664062 16.93945312 C1.20020724 19.29281353 1.09818992 21.64628354 1 24 C0.67 24 0.34 24 0 24 C-0.85518108 18.82819058 -1.15393701 13.86259898 -1.125 8.625 C-1.12886719 7.90183594 -1.13273437 7.17867188 -1.13671875 6.43359375 C-1.12676222 1.12676222 -1.12676222 1.12676222 0 0 Z " fill="#F8BE5C" transform="translate(58,112)"/>
<path d="M0 0 C3.36187855 2.24125237 3.74554236 3.21454941 5.125 6.875 C5.45757812 7.73867187 5.79015625 8.60234375 6.1328125 9.4921875 C6.87963666 11.65192224 7.49264212 13.77383788 8 16 C8.66 16 9.32 16 10 16 C10.66 18.31 11.32 20.62 12 23 C5.52717993 17.12962855 1.91564219 8.42882563 0 0 Z " fill="#832F70" transform="translate(36,118)"/>
<path d="M0 0 C0 3 0 3 -1.1796875 4.578125 C-5.92132933 9.25421417 -11.03242884 13.9612368 -17 17 C-19.30078125 16.6875 -19.30078125 16.6875 -21 16 C-20.07058594 15.43152344 -19.14117187 14.86304687 -18.18359375 14.27734375 C-11.38501866 10.05370832 -5.37827469 6.01854549 0 0 Z " fill="#851713" transform="translate(154,110)"/>
<path d="M0 0 C-1.49076434 3.2826932 -3.38620321 5.93077441 -5.625 8.75 C-6.57246094 9.94882813 -6.57246094 9.94882813 -7.5390625 11.171875 C-8.02117188 11.77515625 -8.50328125 12.3784375 -9 13 C-9.33 12.34 -9.66 11.68 -10 11 C-8.30393829 6.75984574 -5.21095392 0 0 0 Z " fill="#711B5E" transform="translate(71,79)"/>
<path d="M0 0 C2.97 0.495 2.97 0.495 6 1 C6 1.66 6 2.32 6 3 C0.89665983 4.905247 -3.46342706 6.42589023 -9 6 C-5.71536341 3.81024227 -2.79303725 3.00193437 1 2 C0.67 1.34 0.34 0.68 0 0 Z " fill="#6A1858" transform="translate(104,58)"/>
<path d="M0 0 C-1.40071493 5.29158974 -4.85487245 7.77478044 -9 11 C-8.40300869 7.66864109 -7.27987719 5.78724333 -5.0625 3.25 C-4.53785156 2.63640625 -4.01320312 2.0228125 -3.47265625 1.390625 C-2 0 -2 0 0 0 Z " fill="#F1B43B" transform="translate(152,139)"/>
<path d="M0 0 C0.99 0.33 1.98 0.66 3 1 C1.37680325 2.31472947 -0.248615 3.62671662 -1.875 4.9375 C-2.77992187 5.66839844 -3.68484375 6.39929688 -4.6171875 7.15234375 C-7 9 -7 9 -9 10 C-8.66410006 6.86493389 -7.97334828 5.974751 -5.625 3.75 C-3 2 -3 2 0 2 C0 1.34 0 0.68 0 0 Z " fill="#792868" transform="translate(80,71)"/>
<path d="M0 0 C0.66 0 1.32 0 2 0 C3.17673198 2.35346396 3.16623866 3.8806033 3.1875 6.5 C3.20167969 7.2940625 3.21585938 8.088125 3.23046875 8.90625 C3 11 3 11 1 13 C0.67 8.71 0.34 4.42 0 0 Z " fill="#EE5551" transform="translate(163,87)"/>
<path d="M0 0 C1 2 1 2 0.3125 5.0625 C-0.120625 6.031875 -0.55375 7.00125 -1 8 C-3.0625 8.6875 -3.0625 8.6875 -5 9 C-5.33 9.99 -5.66 10.98 -6 12 C-6.33 11.34 -6.66 10.68 -7 10 C-3.535 5.05 -3.535 5.05 0 0 Z " fill="#571147" transform="translate(62,85)"/>
<path d="M0 0 C4.83540096 2.61111652 8.87103901 5.37457083 13 9 C12.67 9.66 12.34 10.32 12 11 C7.71 8.03 3.42 5.06 -1 2 C-0.67 1.34 -0.34 0.68 0 0 Z " fill="#881814" transform="translate(106,45)"/>
<path d="M0 0 C0.66 0.33 1.32 0.66 2 1 C1.73445313 1.50789063 1.46890625 2.01578125 1.1953125 2.5390625 C-0.89977489 6.62218902 -2.67619186 10.5873062 -4 15 C-5.21405922 11.50448721 -4.777272 9.30906703 -3.6875 5.8125 C-3.42324219 4.93207031 -3.15898438 4.05164063 -2.88671875 3.14453125 C-2 1 -2 1 0 0 Z " fill="#7C266A" transform="translate(59,93)"/>
<path d="M0 0 C4.75481646 0.57634139 7.97048212 2.55068521 12 5 C11.67 5.99 11.34 6.98 11 8 C9.16399255 6.85845641 7.33125195 5.71165684 5.5 4.5625 C4.4790625 3.92441406 3.458125 3.28632812 2.40625 2.62890625 C1.6121875 2.09136719 0.818125 1.55382813 0 1 C0 0.67 0 0.34 0 0 Z " fill="#DF3934" transform="translate(98,44)"/>
<path d="M0 0 C0.33 0 0.66 0 1 0 C0.38461538 7.50769231 0.38461538 7.50769231 -1.5625 10 C-2.036875 10.33 -2.51125 10.66 -3 11 C-3.75 9.4375 -3.75 9.4375 -4 7 C-2.86915563 4.49713591 -1.47860484 2.32992278 0 0 Z " fill="#F6B640" transform="translate(163,113)"/>
<path d="M0 0 C2.63249349 2.45699392 4.78137264 4.56568654 6 8 C5.67 8.99 5.34 9.98 5 11 C5 10.34 5 9.68 5 9 C4.34 9 3.68 9 3 9 C0.56839395 5.63316085 0 4.26649636 0 0 Z " fill="#B22420" transform="translate(125,63)"/>
<path d="M0 0 C1.9451 2.91765 2.45276317 4.62537285 3 8 C-2.875 4.25 -2.875 4.25 -4 2 C-2.68 2.33 -1.36 2.66 0 3 C0 2.01 0 1.02 0 0 Z " fill="#8F457E" transform="translate(56,144)"/>
<path d="M0 0 C0 3 0 3 -2.375 5.625 C-5 8 -5 8 -7 9 C-5.44499019 5.18315774 -2.96404505 2.80804268 0 0 Z " fill="#CA9016" transform="translate(154,133)"/>
<path d="M0 0 C0.99 0.33 1.98 0.66 3 1 C0.03 3.64 -2.94 6.28 -6 9 C-6 6 -6 6 -4.6875 4.39453125 C-4.130625 3.87246094 -3.57375 3.35039063 -3 2.8125 C-2.443125 2.28269531 -1.88625 1.75289063 -1.3125 1.20703125 C-0.6628125 0.60955078 -0.6628125 0.60955078 0 0 Z " fill="#460D39" transform="translate(70,76)"/>
<path d="M0 0 C0.66 1.32 1.32 2.64 2 4 C2.66 4 3.32 4 4 4 C4.66 6.31 5.32 8.62 6 11 C3.34730103 8.52414762 1.31989897 6.40973899 0 3 C0 2.01 0 1.02 0 0 Z " fill="#792266" transform="translate(42,130)"/>
<path d="M0 0 C2.61500768 2.36595933 4.38999603 4.86049226 6 8 C5.67 8.66 5.34 9.32 5 10 C4.34 8.68 3.68 7.36 3 6 C2.34 6 1.68 6 1 6 C0.67 4.02 0.34 2.04 0 0 Z " fill="#541145" transform="translate(43,128)"/>
<path d="M0 0 C0.33 0 0.66 0 1 0 C1.33 4.29 1.66 8.58 2 13 C-1 10 -1 10 -1.07421875 7.51953125 C-0.94660156 6.62621094 -0.81898437 5.73289062 -0.6875 4.8125 C-0.56761719 3.91144531 -0.44773438 3.01039062 -0.32421875 2.08203125 C-0.21722656 1.39496094 -0.11023437 0.70789063 0 0 Z " fill="#853072" transform="translate(52,120)"/>
<path d="M0 0 C1.45922693 0.11409593 2.91740598 0.24165544 4.375 0.375 C5.59316406 0.47941406 5.59316406 0.47941406 6.8359375 0.5859375 C9 1 9 1 11 3 C7.59068103 4.13643966 6.99664544 3.86747764 3.8125 2.5625 C3.09707031 2.27503906 2.38164063 1.98757812 1.64453125 1.69140625 C1.10183594 1.46324219 0.55914062 1.23507813 0 1 C0 0.67 0 0.34 0 0 Z " fill="#DF4D49" transform="translate(88,41)"/>
<path d="M0 0 C0 0.66 0 1.32 0 2 C-1.32 2.33 -2.64 2.66 -4 3 C-3.67 3.66 -3.34 4.32 -3 5 C-3.99 5 -4.98 5 -6 5 C-6 4.34 -6 3.68 -6 3 C-6.66 3 -7.32 3 -8 3 C-8 2.34 -8 1.68 -8 1 C-2.25 0 -2.25 0 0 0 Z " fill="#FAC87C" transform="translate(129,135)"/>
<path d="M0 0 C1.5 1.125 1.5 1.125 3 3 C3.1875 6.1875 3.1875 6.1875 3 9 C2.34 8.67 1.68 8.34 1 8 C0.40644386 5.35139573 0.25790731 2.70802678 0 0 Z " fill="#791965" transform="translate(51,130)"/>
</svg>
