<?xml version="1.0" encoding="UTF-8"?>
<svg version="1.1" xmlns="http://www.w3.org/2000/svg" width="1844" height="894">
<path d="M0 0 C608.52 0 1217.04 0 1844 0 C1844 295.02 1844 590.04 1844 894 C1235.48 894 626.96 894 0 894 C0 598.98 0 303.96 0 0 Z " fill="#020817" transform="translate(0,0)"/>
<path d="M0 0 C1.53684448 -0.0236412 1.53684448 -0.0236412 3.10473633 -0.04776001 C4.20068115 -0.03763885 5.29662598 -0.0275177 6.42578125 -0.01708984 C7.56104248 -0.02187347 8.69630371 -0.0266571 9.8659668 -0.03158569 C12.26319771 -0.03498406 14.660475 -0.02578625 17.05761719 -0.00488281 C20.72566119 0.02188058 24.39064486 -0.00463603 28.05859375 -0.03662109 C30.38932967 -0.03331699 32.72006368 -0.02691075 35.05078125 -0.01708984 C36.14672607 -0.027211 37.2426709 -0.03733215 38.37182617 -0.04776001 C39.39638916 -0.03199921 40.42095215 -0.0162384 41.4765625 0 C42.37415283 0.00397797 43.27174316 0.00795593 44.1965332 0.01205444 C47.87261845 0.93032543 49.33354364 2.76710255 51.73828125 5.64697266 C52.36163707 8.57480486 52.36163707 8.57480486 52.35927373 11.88490278 C52.3705102 13.15181271 52.38174666 14.41872264 52.39332363 15.72402379 C52.38049522 17.13036275 52.36721061 18.53669761 52.35352039 19.94302845 C52.35721829 21.44281761 52.36311092 22.94260268 52.37100288 24.44237563 C52.38638526 28.58348566 52.37044295 32.72398446 52.34961221 36.86504907 C52.33247379 41.36255447 52.34428892 45.85999648 52.35249966 50.35751408 C52.36288191 58.2463664 52.35462665 66.13503045 52.33430862 74.02386093 C52.30418014 85.75429281 52.30262524 97.48460553 52.30701857 109.21506905 C52.31359425 128.94583246 52.29685764 148.67651228 52.26693153 168.40725136 C52.23736774 187.94910406 52.21810612 207.49092196 52.21266747 227.03279686 C52.21232377 228.24689294 52.21198007 229.46098902 52.21162596 230.71187589 C52.20993434 236.87741041 52.2084274 243.04294496 52.20699158 249.20847955 C52.19648362 292.9029261 52.16278041 336.59732714 52.11547852 380.29174805 C52.06957232 422.74584714 52.03414644 465.1999338 52.01293945 507.65405273 C52.01228182 508.96218808 52.01162419 510.27032343 52.01094663 511.61809924 C52.00435415 524.75467939 51.99797506 537.89125962 51.99175234 551.02783995 C51.97907055 577.78965336 51.96496429 604.55146597 51.94999695 631.3132782 C51.9493105 632.54380005 51.94862405 633.77432189 51.9479168 635.04213228 C51.90189709 717.24376498 51.82228551 799.4453712 51.73828125 881.64697266 C31.27828125 881.64697266 10.81828125 881.64697266 -10.26171875 881.64697266 C-10.34699322 798.20241967 -10.42688467 714.75786295 -10.47343445 631.3132782 C-10.47412473 630.0790384 -10.47481502 628.84479859 -10.47552622 627.57315759 C-10.4904894 600.75231578 -10.50434051 573.9314735 -10.5170454 547.11063053 C-10.52328229 533.95843783 -10.52976503 520.80624525 -10.53637695 507.65405273 C-10.53703075 506.34522433 -10.53768454 505.03639593 -10.53835815 503.68790606 C-10.5596797 461.23525212 -10.59724727 418.78263137 -10.64320485 376.32999756 C-10.69033135 332.71857514 -10.72113749 289.10717111 -10.7312937 245.49572366 C-10.73273456 239.34141468 -10.73436274 233.18710576 -10.73610497 227.03279686 C-10.73644208 225.82149415 -10.7367792 224.61019145 -10.73712653 223.3621826 C-10.74304407 203.83292836 -10.76625844 184.30373083 -10.79587892 164.77449975 C-10.82526251 145.15956892 -10.83657189 125.54469452 -10.82922564 105.92974243 C-10.82541149 94.26411994 -10.83566125 82.59870334 -10.86570647 70.93311788 C-10.88438779 63.15077164 -10.88508541 55.36856099 -10.87087782 47.58620557 C-10.86329358 43.14526484 -10.86379567 38.70471482 -10.88613466 34.2638152 C-10.90628153 30.22823595 -10.90365422 26.19335438 -10.88241863 22.15778657 C-10.87883072 20.70260699 -10.88372986 19.24737705 -10.89789497 17.79226198 C-10.9158563 15.82321766 -10.9001751 13.85395157 -10.88271123 11.88490278 C-10.88349113 10.79257046 -10.88427104 9.70023815 -10.88507457 8.57480486 C-9.65037938 2.77558039 -5.73922536 0.02543526 0 0 Z " fill="#030918" transform="translate(19.26171875,12.35302734375)"/>
<path d="M0 0 C1.19314158 -0.00779995 2.38628317 -0.01559991 3.61558056 -0.02363622 C6.92439182 -0.04013307 10.23178457 -0.03419306 13.5405097 -0.01870513 C17.10978934 -0.00739792 20.6789445 -0.02485113 24.24819946 -0.03860474 C31.23904689 -0.06084858 38.22962604 -0.05603097 45.22048402 -0.04154153 C50.90159957 -0.03025375 56.58263988 -0.02871638 62.26376343 -0.03416061 C63.07204785 -0.03492678 63.88033226 -0.03569294 64.71311015 -0.03648233 C66.35507784 -0.03808094 67.99704552 -0.039702 69.63901317 -0.04134528 C85.03907337 -0.05560614 100.43898481 -0.03920482 115.83902061 -0.01234345 C129.05559671 0.00999567 142.27195325 0.00611563 155.48852539 -0.01693726 C170.83312375 -0.04368936 186.1775917 -0.05423281 201.52221012 -0.03887594 C203.15816814 -0.03728318 204.79412617 -0.03571132 206.43008423 -0.03416061 C207.63749678 -0.03300355 207.63749678 -0.03300355 208.8693015 -0.03182311 C214.54419628 -0.02750433 220.2190084 -0.03479647 225.89389038 -0.04655838 C232.80888636 -0.06057541 239.72359854 -0.05680047 246.63856196 -0.03015466 C250.16738936 -0.01700541 253.69574342 -0.01188222 257.22456741 -0.02840042 C261.04792904 -0.04602678 264.87051403 -0.02499437 268.69384766 0 C270.3711208 -0.01673041 270.3711208 -0.01673041 272.08227825 -0.03379881 C279.57915657 0.06165783 279.57915657 0.06165783 283.5355587 3.01574135 C285.55800102 5.94012918 285.97829217 7.37567109 285.99389648 10.89663696 C286.00965729 11.92119995 286.02541809 12.94576294 286.04165649 14.00137329 C286.02647476 15.64529053 286.02647476 15.64529053 286.01098633 17.32241821 C286.01576996 18.45767944 286.02055359 19.59294067 286.02548218 20.76260376 C286.02888055 23.15983467 286.01968274 25.55711197 285.9987793 27.95425415 C285.97201591 31.62229816 285.99853251 35.28728182 286.03051758 38.95523071 C286.02721347 41.28596663 286.02080723 43.61670064 286.01098633 45.94741821 C286.02110748 47.04336304 286.03122864 48.13930786 286.04165649 49.26846313 C286.02589569 50.29302612 286.01013489 51.31758911 285.99389648 52.37319946 C285.98991852 53.27078979 285.98594055 54.16838013 285.98184204 55.09317017 C285.01210395 58.97529207 283.56537509 60.2318324 280.34692383 62.63491821 C276.46935105 63.3911277 272.63395555 63.30913809 268.69384766 63.26983643 C267.50070607 63.27763638 266.30756449 63.28543633 265.0782671 63.29347265 C261.76945584 63.30996949 258.46206309 63.30402948 255.15333796 63.28854156 C251.58405831 63.27723435 248.01490315 63.29468755 244.44564819 63.30844116 C237.45480077 63.33068501 230.46422161 63.3258674 223.47336364 63.31137796 C217.79224809 63.30009017 212.11120777 63.29855281 206.43008423 63.30399704 C205.62179981 63.3047632 204.81351539 63.30552937 203.98073751 63.30631875 C202.33876981 63.30791736 200.69680214 63.30953843 199.05483449 63.31118171 C183.65477428 63.32544256 168.25486285 63.30904125 152.85482705 63.28217988 C139.63825094 63.25984076 126.42189441 63.2637208 113.20532227 63.28677368 C97.8607239 63.31352579 82.51625596 63.32406923 67.17163754 63.30871236 C65.53567952 63.3071196 63.89972148 63.30554775 62.26376343 63.30399704 C61.45882173 63.30322566 60.65388003 63.30245428 59.82454616 63.30165953 C54.14965138 63.29734075 48.47483926 63.30463289 42.79995728 63.31639481 C35.88496129 63.33041184 28.97024912 63.3266369 22.05528569 63.29999109 C18.5264583 63.28684183 14.99810423 63.28171865 11.46928024 63.29823685 C7.64591862 63.31586321 3.82333362 63.2948308 0 63.26983643 C-1.1181821 63.28099003 -2.23636419 63.29214364 -3.3884306 63.30363524 C-10.88530891 63.2081786 -10.88530891 63.2081786 -14.84171104 60.25409508 C-16.86415337 57.32970724 -17.28444451 55.89416533 -17.30004883 52.37319946 C-17.31580963 51.34863647 -17.33157043 50.32407349 -17.34780884 49.26846313 C-17.33768768 48.17251831 -17.32756653 47.07657349 -17.31713867 45.94741821 C-17.3219223 44.81215698 -17.32670593 43.67689575 -17.33163452 42.50723267 C-17.33503289 40.11000175 -17.32583508 37.71272446 -17.30493164 35.31558228 C-17.27816825 31.64753827 -17.30468486 27.9825546 -17.33666992 24.31460571 C-17.33336582 21.9838698 -17.32695958 19.65313578 -17.31713867 17.32241821 C-17.32725983 16.22647339 -17.33738098 15.13052856 -17.34780884 14.00137329 C-17.33204803 12.9768103 -17.31628723 11.95224731 -17.30004883 10.89663696 C-17.29607086 9.99904663 -17.2920929 9.1014563 -17.28799438 8.17666626 C-15.06682281 -0.71527983 -7.52049383 -0.07501519 0 0 Z " fill="#050A1A" transform="translate(112.653076171875,77.36508178710938)"/>
<path d="M0 0 C1.24486679 -0.00938095 2.48973358 -0.0187619 3.77232361 -0.02842712 C5.12760098 -0.01794759 6.48287173 -0.00657841 7.83813477 0.00561523 C9.23291601 0.00546019 10.62769769 0.00397032 12.0224762 0.00120544 C14.9437264 -0.00017798 17.8644853 0.01236747 20.78564453 0.03515625 C24.5227131 0.06351512 28.25896397 0.06081034 31.9960928 0.04806614 C34.8761132 0.04109659 37.75594601 0.04891308 40.63594246 0.06132317 C42.01339052 0.06582719 43.39085881 0.06618365 44.76830864 0.06225777 C46.69713547 0.05933407 48.62595807 0.07805371 50.5546875 0.09765625 C51.65070786 0.10305923 52.74672821 0.10846222 53.8759613 0.11402893 C57.2562743 0.55585115 59.14591467 1.43600552 61.84204102 3.50170898 C62.89776424 6.66887865 62.98141616 8.94352901 63.00317383 12.27075195 C63.01278137 13.45563202 63.02238892 14.64051208 63.0322876 15.86129761 C63.03653748 17.14255524 63.04078735 18.42381287 63.04516602 19.74389648 C63.05086609 21.05955597 63.05656616 22.37521545 63.06243896 23.73074341 C63.07293821 26.51654445 63.07878793 29.30231673 63.08227539 32.08813477 C63.08775857 35.65139157 63.11178684 39.21426595 63.14024734 42.77740288 C63.16339145 46.1828934 63.16532439 49.58833139 63.17016602 52.99389648 C63.18251282 54.27110565 63.19485962 55.54831482 63.20758057 56.86422729 C63.20457947 58.05541168 63.20157837 59.24659607 63.19848633 60.47387695 C63.20395477 62.04248978 63.20395477 62.04248978 63.20953369 63.64279175 C62.78174986 66.97074533 61.86782702 68.84267459 59.84204102 71.50170898 C56.46225544 72.62830418 53.91387965 72.62191881 50.35107422 72.61523438 C49.37018326 72.61545341 49.37018326 72.61545341 48.36947632 72.61567688 C46.21055775 72.61498087 44.05172574 72.60720307 41.89282227 72.59936523 C40.39495389 72.59749995 38.8970849 72.59607657 37.3992157 72.59507751 C33.45859083 72.59126105 29.51800287 72.58143819 25.57739258 72.57037354 C21.55558776 72.56014071 17.53377698 72.55557588 13.51196289 72.55053711 C5.621972 72.53981514 -2.2679889 72.52274916 -10.15795898 72.50170898 C-10.2506469 63.70476406 -10.32171744 54.90798727 -10.36520767 46.11066055 C-10.3860811 42.02566529 -10.41439361 37.94100414 -10.4597168 33.85620117 C-10.50318429 29.91396553 -10.52709793 25.97205121 -10.53746796 22.02959442 C-10.5448578 20.52566214 -10.55928865 19.02174742 -10.58087921 17.51795197 C-10.6099271 15.41091439 -10.61391469 13.3052037 -10.61206055 11.19799805 C-10.62094299 9.9988678 -10.62982544 8.79973755 -10.63897705 7.56427002 C-10.15795898 4.50170898 -10.15795898 4.50170898 -8.51445007 2.11454773 C-5.48787272 0.04308595 -3.65458772 0.00055448 0 0 Z " fill="#232D3F" transform="translate(494.157958984375,741.498291015625)"/>
<path d="M0 0 C1.18503113 -0.00960754 2.37006226 -0.01921509 3.59100342 -0.02911377 C4.88258362 -0.03336365 6.17416382 -0.03761353 7.50488281 -0.04199219 C8.82337219 -0.04769226 10.14186157 -0.05339233 11.50030518 -0.05926514 C14.29805895 -0.06978648 17.0957839 -0.07562101 19.89355469 -0.07910156 C23.47256308 -0.08457436 27.05118871 -0.10857096 30.63007736 -0.13707352 C33.3839426 -0.15573614 36.13771658 -0.16090751 38.89163971 -0.16243744 C40.85087997 -0.16692575 42.81007132 -0.18556014 44.76922607 -0.20440674 C46.56568573 -0.19990509 46.56568573 -0.19990509 48.3984375 -0.1953125 C49.45021179 -0.19895813 50.50198608 -0.20260376 51.58563232 -0.20635986 C54.92161596 0.22044699 56.79367501 1.12946642 59.45800781 3.16113281 C60.57618158 6.5156541 60.57826651 9.02531546 60.5715332 12.56030273 C60.57167923 13.20447647 60.57182526 13.84865021 60.57197571 14.51234436 C60.57127977 16.63879784 60.56350229 18.76516341 60.55566406 20.89160156 C60.55379875 22.36704968 60.55237538 23.84249843 60.55137634 25.31794739 C60.54756007 29.19938876 60.53773737 33.08079266 60.52667236 36.96221924 C60.51643912 40.9237009 60.51187462 44.88518862 60.50683594 48.84667969 C60.49611432 56.61818114 60.47904857 64.38965172 60.45800781 72.16113281 C51.92188573 72.30017506 43.38623689 72.40677301 34.84926224 72.47200584 C30.88510383 72.50331538 26.92172024 72.54577817 22.95800781 72.61376953 C19.1324376 72.67898033 15.30761235 72.7148417 11.48152924 72.73039627 C10.02218647 72.74147998 8.56288437 72.76312522 7.10385895 72.79551315 C5.05857916 72.83910776 3.01637302 72.8450669 0.97070312 72.84228516 C-0.19289734 72.85560883 -1.3564978 72.8689325 -2.55535889 72.88265991 C-5.54199219 72.16113281 -5.54199219 72.16113281 -7.91767883 69.50041199 C-9.62298249 65.99463217 -10.04308239 63.91496899 -10.04370117 60.05151367 C-10.05308212 58.8668602 -10.06246307 57.68220673 -10.0721283 56.46165466 C-10.06089432 55.19588089 -10.04966034 53.93010712 -10.03808594 52.62597656 C-10.03954117 51.31456192 -10.0409964 50.00314728 -10.04249573 48.6519928 C-10.04387599 45.8839191 -10.03138387 43.11636591 -10.00854492 40.34838867 C-9.98013259 36.80866056 -9.98290968 33.26979461 -9.99563503 29.7300024 C-10.0042787 26.34107081 -9.98914166 22.95239362 -9.97558594 19.56347656 C-9.97852158 18.29567856 -9.98145721 17.02788055 -9.98448181 15.72166443 C-9.97179764 14.54016312 -9.95911346 13.3586618 -9.94604492 12.14135742 C-9.94064194 11.10466415 -9.93523895 10.06797089 -9.92967224 8.99986267 C-8.99195018 2.13353157 -6.42272541 0.04182217 0 0 Z " fill="#F4F6F8" transform="translate(1720.5419921875,661.8388671875)"/>
<path d="M0 0 C1.1149585 -0.00430527 1.1149585 -0.00430527 2.25244141 -0.00869751 C3.8225989 -0.01073726 5.39278186 -0.0052135 6.96289062 0.00732422 C9.36646332 0.02338047 11.76835461 0.00747398 14.171875 -0.01171875 C15.69792038 -0.0097363 17.22396471 -0.00589259 18.75 0 C19.46881348 -0.00607269 20.18762695 -0.01214539 20.92822266 -0.0184021 C23.67904974 0.02037743 25.87748134 0.13119393 28.32666016 1.44677734 C29.97559952 4.51655408 29.80214967 7.62483043 29.7734375 11.0234375 C29.77630768 11.76674316 29.77917786 12.51004883 29.78213501 13.27587891 C29.78417476 14.8460364 29.778651 16.41621936 29.76611328 17.98632812 C29.75005703 20.38990082 29.76596352 22.79179211 29.78515625 25.1953125 C29.7831738 26.72135788 29.77933009 28.24740221 29.7734375 29.7734375 C29.78254654 30.85165771 29.78254654 30.85165771 29.7918396 31.95166016 C29.75306007 34.70248724 29.64224357 36.90091884 28.32666016 39.35009766 C25.25688342 40.99903702 22.14860707 40.82558717 18.75 40.796875 C17.6350415 40.80118027 17.6350415 40.80118027 16.49755859 40.80557251 C14.9274011 40.80761226 13.35721814 40.8020885 11.78710938 40.78955078 C9.38353668 40.77349453 6.98164539 40.78940102 4.578125 40.80859375 C3.05207962 40.8066113 1.52603529 40.80276759 0 40.796875 C-0.71881348 40.80294769 -1.43762695 40.80902039 -2.17822266 40.8152771 C-4.92904974 40.77649757 -7.12748134 40.66568107 -9.57666016 39.35009766 C-11.22559952 36.28032092 -11.05214967 33.17204457 -11.0234375 29.7734375 C-11.02630768 29.03013184 -11.02917786 28.28682617 -11.03213501 27.52099609 C-11.03417476 25.9508386 -11.028651 24.38065564 -11.01611328 22.81054688 C-11.00005703 20.40697418 -11.01596352 18.00508289 -11.03515625 15.6015625 C-11.0331738 14.07551712 -11.02933009 12.54947279 -11.0234375 11.0234375 C-11.03254654 9.94521729 -11.03254654 9.94521729 -11.0418396 8.84521484 C-11.00306007 6.09438776 -10.89224357 3.89595616 -9.57666016 1.44677734 C-6.50688342 -0.20216202 -3.39860707 -0.02871217 0 0 Z " fill="#050C1B" transform="translate(30.625,801.6015625)"/>
<path d="M0 0 C1.1149585 -0.00430527 1.1149585 -0.00430527 2.25244141 -0.00869751 C3.8225989 -0.01073726 5.39278186 -0.0052135 6.96289062 0.00732422 C9.36646332 0.02338047 11.76835461 0.00747398 14.171875 -0.01171875 C15.69792038 -0.0097363 17.22396471 -0.00589259 18.75 0 C19.46881348 -0.00607269 20.18762695 -0.01214539 20.92822266 -0.0184021 C23.67904974 0.02037743 25.87748134 0.13119393 28.32666016 1.44677734 C29.97559952 4.51655408 29.80214967 7.62483043 29.7734375 11.0234375 C29.77630768 11.76674316 29.77917786 12.51004883 29.78213501 13.27587891 C29.78417476 14.8460364 29.778651 16.41621936 29.76611328 17.98632812 C29.75005703 20.38990082 29.76596352 22.79179211 29.78515625 25.1953125 C29.7831738 26.72135788 29.77933009 28.24740221 29.7734375 29.7734375 C29.78254654 30.85165771 29.78254654 30.85165771 29.7918396 31.95166016 C29.75306007 34.70248724 29.64224357 36.90091884 28.32666016 39.35009766 C25.25688342 40.99903702 22.14860707 40.82558717 18.75 40.796875 C17.6350415 40.80118027 17.6350415 40.80118027 16.49755859 40.80557251 C14.9274011 40.80761226 13.35721814 40.8020885 11.78710938 40.78955078 C9.38353668 40.77349453 6.98164539 40.78940102 4.578125 40.80859375 C3.05207962 40.8066113 1.52603529 40.80276759 0 40.796875 C-0.71881348 40.80294769 -1.43762695 40.80902039 -2.17822266 40.8152771 C-4.92904974 40.77649757 -7.12748134 40.66568107 -9.57666016 39.35009766 C-11.22559952 36.28032092 -11.05214967 33.17204457 -11.0234375 29.7734375 C-11.02630768 29.03013184 -11.02917786 28.28682617 -11.03213501 27.52099609 C-11.03417476 25.9508386 -11.028651 24.38065564 -11.01611328 22.81054688 C-11.00005703 20.40697418 -11.01596352 18.00508289 -11.03515625 15.6015625 C-11.0331738 14.07551712 -11.02933009 12.54947279 -11.0234375 11.0234375 C-11.03254654 9.94521729 -11.03254654 9.94521729 -11.0418396 8.84521484 C-11.00306007 6.09438776 -10.89224357 3.89595616 -9.57666016 1.44677734 C-6.50688342 -0.20216202 -3.39860707 -0.02871217 0 0 Z " fill="#0D1422" transform="translate(30.625,85.6015625)"/>
<path d="M0 0 C0.71873795 -0.00287018 1.43747589 -0.00574036 2.17799377 -0.00869751 C3.69687692 -0.01073726 5.21578638 -0.00521351 6.73461914 0.00732422 C9.05480013 0.0233573 11.37323311 0.00748637 13.69335938 -0.01171875 C15.17057675 -0.00973584 16.64779304 -0.00589117 18.125 0 C18.81677841 -0.00607269 19.50855682 -0.01214539 20.22129822 -0.0184021 C23.11445303 0.02364352 25.40377262 0.30007552 28.06469727 1.46264648 C30.39833185 4.35064221 30.20163989 7.21491467 30.16015625 10.76953125 C30.16398315 11.4882692 30.16781006 12.20700714 30.17175293 12.94752502 C30.17447261 14.4664144 30.16710723 15.98535057 30.15039062 17.50415039 C30.12900888 19.82479834 30.15016974 22.14233996 30.17578125 24.46289062 C30.17313737 25.94011098 30.16801112 27.41732941 30.16015625 28.89453125 C30.16825317 29.58630966 30.1763501 30.27808807 30.18469238 30.99082947 C30.12331344 34.15843869 29.78798414 36.15072093 28.06469727 38.83422852 C24.78627564 40.9395555 21.90147598 40.97388928 18.125 40.9296875 C17.40530533 40.9335144 16.68561066 40.93734131 15.94410706 40.94128418 C14.42699784 40.94399946 12.90984151 40.93666495 11.39282227 40.91992188 C9.07006754 40.89847131 6.75039423 40.91974825 4.42773438 40.9453125 C2.95181609 40.94266976 1.47589973 40.9375459 0 40.9296875 C-0.69380264 40.93778442 -1.38760529 40.94588135 -2.10243225 40.95422363 C-5.09702581 40.89591476 -6.94244203 40.74480798 -9.30688477 38.83422852 C-10.75429601 35.52135354 -10.80070862 32.44614008 -10.76953125 28.89453125 C-10.77240143 28.17483658 -10.77527161 27.45514191 -10.77822876 26.71363831 C-10.78026521 25.19653534 -10.77476461 23.67940587 -10.76220703 22.16235352 C-10.74612232 19.84006177 -10.76208029 17.51950401 -10.78125 15.19726562 C-10.77926795 13.72135033 -10.77542507 12.24543611 -10.76953125 10.76953125 C-10.77560394 10.07572861 -10.78167664 9.38192596 -10.78793335 8.667099 C-10.74848244 5.96563581 -10.62168931 3.85426961 -9.30688477 1.46264648 C-6.31664839 -0.18124812 -3.32518681 -0.02910459 0 0 Z " fill="#1F293B" transform="translate(1794.37109375,30.6015625)"/>
<path d="M0 0 C0.71873795 -0.00287018 1.43747589 -0.00574036 2.17799377 -0.00869751 C3.69687692 -0.01073726 5.21578638 -0.00521351 6.73461914 0.00732422 C9.05480013 0.0233573 11.37323311 0.00748637 13.69335938 -0.01171875 C15.17057675 -0.00973584 16.64779304 -0.00589117 18.125 0 C18.81677841 -0.00607269 19.50855682 -0.01214539 20.22129822 -0.0184021 C23.11445303 0.02364352 25.40377262 0.30007552 28.06469727 1.46264648 C30.39833185 4.35064221 30.20163989 7.21491467 30.16015625 10.76953125 C30.16398315 11.4882692 30.16781006 12.20700714 30.17175293 12.94752502 C30.17447261 14.4664144 30.16710723 15.98535057 30.15039062 17.50415039 C30.12900888 19.82479834 30.15016974 22.14233996 30.17578125 24.46289062 C30.17313737 25.94011098 30.16801112 27.41732941 30.16015625 28.89453125 C30.16825317 29.58630966 30.1763501 30.27808807 30.18469238 30.99082947 C30.12331344 34.15843869 29.78798414 36.15072093 28.06469727 38.83422852 C24.78627564 40.9395555 21.90147598 40.97388928 18.125 40.9296875 C17.40530533 40.9335144 16.68561066 40.93734131 15.94410706 40.94128418 C14.42699784 40.94399946 12.90984151 40.93666495 11.39282227 40.91992188 C9.07006754 40.89847131 6.75039423 40.91974825 4.42773438 40.9453125 C2.95181609 40.94266976 1.47589973 40.9375459 0 40.9296875 C-0.69380264 40.93778442 -1.38760529 40.94588135 -2.10243225 40.95422363 C-5.09702581 40.89591476 -6.94244203 40.74480798 -9.30688477 38.83422852 C-10.75429601 35.52135354 -10.80070862 32.44614008 -10.76953125 28.89453125 C-10.77240143 28.17483658 -10.77527161 27.45514191 -10.77822876 26.71363831 C-10.78026521 25.19653534 -10.77476461 23.67940587 -10.76220703 22.16235352 C-10.74612232 19.84006177 -10.76208029 17.51950401 -10.78125 15.19726562 C-10.77926795 13.72135033 -10.77542507 12.24543611 -10.76953125 10.76953125 C-10.77560394 10.07572861 -10.78167664 9.38192596 -10.78793335 8.667099 C-10.74848244 5.96563581 -10.62168931 3.85426961 -9.30688477 1.46264648 C-6.31664839 -0.18124812 -3.32518681 -0.02910459 0 0 Z " fill="#DDE0E4" transform="translate(30.37109375,29.6015625)"/>
<path d="M0 0 C1.04481285 -0.00430527 1.04481285 -0.00430527 2.11073303 -0.00869751 C3.58253798 -0.01073701 5.0543701 -0.00521502 6.52612305 0.00732422 C8.77389506 0.02335718 11.01986259 0.00748618 13.26757812 -0.01171875 C14.69922271 -0.00973582 16.13086617 -0.00589111 17.5625 0 C18.8630835 0.00338379 20.16366699 0.00676758 21.50366211 0.01025391 C25.08638004 0.42614947 26.56828925 0.60204249 28.84765625 3.3984375 C29.25450437 5.99746773 29.40924068 8.17025888 29.37890625 10.76953125 C29.38273315 11.4882692 29.38656006 12.20700714 29.39050293 12.94752502 C29.39322261 14.4664144 29.38585723 15.98535057 29.36914062 17.50415039 C29.34775888 19.82479834 29.36891974 22.14233996 29.39453125 24.46289062 C29.39188737 25.94011098 29.38676112 27.41732941 29.37890625 28.89453125 C29.38700317 29.58630966 29.3951001 30.27808807 29.40344238 30.99082947 C29.34189199 34.16728692 29.00888945 36.14954015 27.26977539 38.83422852 C23.93296251 40.9891484 21.51957875 40.91596041 17.5625 40.9296875 C16.51625206 40.93542786 16.51625206 40.93542786 15.4488678 40.94128418 C13.97883658 40.94399898 12.5087567 40.9366678 11.03881836 40.91992188 C8.78845814 40.89846898 6.541278 40.91974972 4.29101562 40.9453125 C2.86067004 40.94266977 1.43032644 40.93754593 0 40.9296875 C-1.29945557 40.92517578 -2.59891113 40.92066406 -3.93774414 40.91601562 C-7.15234375 40.3984375 -7.15234375 40.3984375 -9.07446289 38.83422852 C-10.54000229 35.52240823 -10.58200127 32.4509994 -10.55078125 28.89453125 C-10.55365143 28.17483658 -10.55652161 27.45514191 -10.55947876 26.71363831 C-10.56151521 25.19653534 -10.55601461 23.67940587 -10.54345703 22.16235352 C-10.52737232 19.84006177 -10.54333029 17.51950401 -10.5625 15.19726562 C-10.56051795 13.72135033 -10.55667507 12.24543611 -10.55078125 10.76953125 C-10.55685394 10.07572861 -10.56292664 9.38192596 -10.56918335 8.667099 C-10.52962511 5.95828648 -10.40615449 3.85426204 -9.07446289 1.46264648 C-6.07288288 -0.19922158 -3.40656705 0.00887072 0 0 Z " fill="#F5F7F9" transform="translate(1795.15234375,844.6015625)"/>
<path d="M0 0 C0.69891357 -0.00287018 1.39782715 -0.00574036 2.11791992 -0.00869751 C3.59392101 -0.01073675 5.06994921 -0.00521653 6.54589844 0.00732422 C8.80465138 0.0233817 11.06161518 0.0074728 13.3203125 -0.01171875 C14.75521228 -0.00973629 16.19011095 -0.00589256 17.625 0 C18.93082031 0.00338379 20.23664063 0.00676758 21.58203125 0.01025391 C24.8125 0.3984375 24.8125 0.3984375 26.73681641 1.47412109 C28.41912661 4.48364652 28.20206929 7.16365242 28.2109375 10.5859375 C28.21380768 11.28485107 28.21667786 11.98376465 28.21963501 12.70385742 C28.22167425 14.17985851 28.21615403 15.65588671 28.20361328 17.13183594 C28.1875558 19.39058888 28.2034647 21.64755268 28.22265625 23.90625 C28.22067379 25.34114978 28.21683006 26.77604845 28.2109375 28.2109375 C28.20755371 29.51675781 28.20416992 30.82257812 28.20068359 32.16796875 C27.8125 35.3984375 27.8125 35.3984375 26.73681641 37.32275391 C23.72729098 39.00506411 21.04728508 38.78800679 17.625 38.796875 C16.92608643 38.79974518 16.22717285 38.80261536 15.50708008 38.80557251 C14.03107899 38.80761175 12.55505079 38.80209153 11.07910156 38.78955078 C8.82034862 38.7734933 6.56338482 38.7894022 4.3046875 38.80859375 C2.86978772 38.80661129 1.43488905 38.80276756 0 38.796875 C-1.30582031 38.79349121 -2.61164063 38.79010742 -3.95703125 38.78662109 C-7.1875 38.3984375 -7.1875 38.3984375 -9.11181641 37.32275391 C-10.79412661 34.31322848 -10.57706929 31.63322258 -10.5859375 28.2109375 C-10.58880768 27.51202393 -10.59167786 26.81311035 -10.59463501 26.09301758 C-10.59667425 24.61701649 -10.59115403 23.14098829 -10.57861328 21.66503906 C-10.5625558 19.40628612 -10.5784647 17.14932232 -10.59765625 14.890625 C-10.59567379 13.45572522 -10.59183006 12.02082655 -10.5859375 10.5859375 C-10.58255371 9.28011719 -10.57916992 7.97429688 -10.57568359 6.62890625 C-10.1875 3.3984375 -10.1875 3.3984375 -9.11181641 1.47412109 C-6.10229098 -0.20818911 -3.42228508 0.00886821 0 0 Z " fill="#020817" transform="translate(369.1875,22.6015625)"/>
<path d="M0 0 C4.97772182 2.80691007 8.22825619 7.45651239 10.75 12.5 C11.48467323 19.65403112 11.07410705 25.59618821 6.75 31.5 C3.8439389 34.85830115 1.30250896 36.38415135 -3.125 37.3125 C-4.671875 37.4053125 -4.671875 37.4053125 -6.25 37.5 C-6.375 29.75 -6.375 29.75 -5.25 27.5 C-6.0263932 24.4254644 -6.0263932 24.4254644 -8.25 22.5 C-7.92 21.51 -7.59 20.52 -7.25 19.5 C-8.57 19.5 -9.89 19.5 -11.25 19.5 C-11.04375 20.0775 -10.8375 20.655 -10.625 21.25 C-10.14996247 24.10022516 -10.82667111 25.02790245 -12.25 27.5 C-12.92966676 29.16140763 -13.59938905 30.82700041 -14.25 32.5 C-13.59 32.5 -12.93 32.5 -12.25 32.5 C-12.25 34.15 -12.25 35.8 -12.25 37.5 C-17.07356893 37.21058586 -20.29549824 36.44167859 -23.89453125 33.07421875 C-28.12857457 28.15687161 -29.89745412 23.14382224 -29.57421875 16.66796875 C-28.74300708 11.1098666 -26.18696386 6.43696386 -22.25 2.5 C-15.46544242 -2.31687847 -7.71073521 -3.29619215 0 0 Z " fill="#A0BAC9" transform="translate(134.25,90.5)"/>
<path d="M0 0 C4.98669007 2.49334503 8.49675474 5.99350949 11 11 C11.54360446 15.95482094 11.56437074 19.87125852 9.3125 24.375 C3.60160735 30.8576349 3.60160735 30.8576349 -0.8125 31.25 C-1.534375 31.1675 -2.25625 31.085 -3 31 C-3.125 25.25 -3.125 25.25 -2 23 C-2.66 22.01 -3.32 21.02 -4 20 C-4 19.01 -4 18.02 -4 17 C-4.66 17 -5.32 17 -6 17 C-7.54519424 21.63558271 -8 26.12493323 -8 31 C-11.1793909 30.92430022 -13.30889688 30.63231963 -15.69921875 28.4453125 C-20.06921346 23.34522182 -21.35912839 20.29501288 -21.28125 13.5390625 C-20.73016315 8.56397287 -17.99302299 5.87480597 -14.375 2.6875 C-9.71860985 -0.62098774 -5.60468123 -0.62082623 0 0 Z " fill="#A6BECB" transform="translate(465,782)"/>
<path d="M0 0 C4.98669007 2.49334503 8.49675474 5.99350949 11 11 C11.54360446 15.95482094 11.56437074 19.87125852 9.3125 24.375 C3.60160735 30.8576349 3.60160735 30.8576349 -0.8125 31.25 C-1.534375 31.1675 -2.25625 31.085 -3 31 C-3.125 25.25 -3.125 25.25 -2 23 C-2.66 22.01 -3.32 21.02 -4 20 C-4 19.01 -4 18.02 -4 17 C-4.66 17 -5.32 17 -6 17 C-7.54519424 21.63558271 -8 26.12493323 -8 31 C-11.1793909 30.92430022 -13.30889688 30.63231963 -15.69921875 28.4453125 C-20.06921346 23.34522182 -21.35912839 20.29501288 -21.28125 13.5390625 C-20.73016315 8.56397287 -17.99302299 5.87480597 -14.375 2.6875 C-9.71860985 -0.62098774 -5.60468123 -0.62082623 0 0 Z " fill="#A6BECB" transform="translate(462,35)"/>
<path d="M0 0 C3.17716278 1.76509044 5.58472458 3.64225108 7 7.0625 C7.70835972 13.26064759 7.33647686 17.71562769 4.25 23.25 C-0.58225808 26.87419356 -4.78312157 27.55863164 -10.75 27.25 C-15.24539102 26.10001625 -17.11915318 24.00835259 -19.75 20.25 C-21.47890969 16.79218063 -21.23887512 13.03063425 -20.75 9.25 C-18.875 6.1875 -18.875 6.1875 -16.75 4.25 C-16.09 4.25 -15.43 4.25 -14.75 4.25 C-14.316875 3.2909375 -14.316875 3.2909375 -13.875 2.3125 C-11.22147036 -2.55230434 -4.63927293 -1.26525625 0 0 Z " fill="#000034" transform="translate(1811.75,704.75)"/>
<path d="M0 0 C4.34211086 2.46229457 7.38394883 6.13535257 9.75 10.5 C9.75 11.49 9.75 12.48 9.75 13.5 C-2.79 13.5 -15.33 13.5 -28.25 13.5 C-27.09234298 7.71171488 -25.17402055 4.61179262 -20.4921875 1.23046875 C-13.97886513 -2.50084751 -6.93513398 -2.96463743 0 0 Z " fill="#C8DBE1" transform="translate(134.25,90.5)"/>
<path d="M0 0 C5.86345278 0.05390304 9.73579051 0.58292064 14.125 4.59375 C16.02520377 7.26308387 16.45204834 9.22808108 16.078125 12.46875 C14.85212901 16.23644498 12.92980619 18.55702744 9.4375 20.4375 C4.82087947 21.32842677 0.8794605 20.98974019 -3.5 19.3125 C-6.2759693 16.78889155 -7.38559754 15.03359084 -8.5625 11.4375 C-8.52874534 0.29846087 -8.52874534 0.29846087 0 0 Z " fill="#03033D" transform="translate(36.5625,863.5625)"/>
<path d="M0 0 C3.62416894 1.64734952 6.12851416 3.45402683 8 7 C8.41259969 10.78216379 8.32517815 13.24695586 6.8125 16.75 C3.79022645 20.50178785 1.33375077 21.80599989 -3.4375 22.5 C-8.19197325 21.83270551 -9.67221155 20.40702151 -13 17 C-14.21762731 13.34711807 -14.39075851 10.84245864 -14 7 C-10.35973954 0.90120542 -6.94453392 -0.47081586 0 0 Z " fill="#070D1B" transform="translate(381,31)"/>
<path d="M0 0 C2.1875 0.3125 2.1875 0.3125 4 1 C4 1.99 4 2.98 4 4 C5.98 4 7.96 4 10 4 C11.09643751 8.93396878 11.09643751 13.06603122 10 18 C8.02 18 6.04 18 4 18 C3.67 19.32 3.34 20.64 3 22 C1.35 21.67 -0.3 21.34 -2 21 C-2 20.01 -2 19.02 -2 18 C-3.98 18 -5.96 18 -8 18 C-9.09643751 13.06603122 -9.09643751 8.93396878 -8 4 C-7.236875 3.896875 -6.47375 3.79375 -5.6875 3.6875 C-2.95645104 3.2401537 -2.95645104 3.2401537 -1.4375 1.375 C-0.963125 0.92125 -0.48875 0.4675 0 0 Z " fill="#303A4B" transform="translate(1803,40)"/>
<path d="M0 0 C12.46024735 -0.41077739 12.46024735 -0.41077739 17 3 C19.29013653 6.4352048 19.17842973 7.985331 19 12 C18.34 12 17.68 12 17 12 C16.9175 12.61875 16.835 13.2375 16.75 13.875 C16 16 16 16 14.34375 17.125 C9.77379729 18.83111568 4.81002358 18.10456573 0 18 C0 12.06 0 6.12 0 0 Z " fill="#050874" transform="translate(1797,709)"/>
<path d="M0 0 C4.39616067 2.19808034 7.27582476 4.91373714 10 9 C10 9.99 10 10.98 10 12 C0.1 12 -9.8 12 -20 12 C-18.87308642 6.3654321 -18.87308642 6.3654321 -15.5625 3.75 C-14.94503906 3.24984375 -14.32757813 2.7496875 -13.69140625 2.234375 C-9.47603292 -0.84197136 -5.0494956 -0.55932874 0 0 Z " fill="#C7D9E0" transform="translate(465,782)"/>
<path d="M0 0 C4.39616067 2.19808034 7.27582476 4.91373714 10 9 C10 9.99 10 10.98 10 12 C0.1 12 -9.8 12 -20 12 C-18.87308642 6.3654321 -18.87308642 6.3654321 -15.5625 3.75 C-14.94503906 3.24984375 -14.32757813 2.7496875 -13.69140625 2.234375 C-9.47603292 -0.84197136 -5.0494956 -0.55932874 0 0 Z " fill="#C7D9E0" transform="translate(462,35)"/>
<path d="M0 0 C7.44379088 2.23313726 14.11976695 5.40272079 21 9 C21 9.66 21 10.32 21 11 C17.87797994 12.50626117 14.75191601 14.00393243 11.625 15.5 C10.73554687 15.92925781 9.84609375 16.35851562 8.9296875 16.80078125 C7.65351562 17.40986328 7.65351562 17.40986328 6.3515625 18.03125 C5.56604004 18.40830078 4.78051758 18.78535156 3.97119141 19.17382812 C2 20 2 20 0 20 C0.144375 19.29875 0.28875 18.5975 0.4375 17.875 C0.623125 16.92625 0.80875 15.9775 1 15 C1.226875 14.0925 1.45375 13.185 1.6875 12.25 C2.10613711 7.89617401 1.12667193 4.19010222 0 0 Z " fill="#182032" transform="translate(1795,855)"/>
<path d="M0 0 C1.58206057 0.00667536 3.16410534 0.0186375 4.74609375 0.03515625 C5.55240234 0.03966797 6.35871094 0.04417969 7.18945312 0.04882812 C9.18753131 0.06065107 11.18557158 0.07858711 13.18359375 0.09765625 C12.52879685 6.04011414 11.52950366 8.84832212 7.18359375 13.09765625 C3.39799601 15.41536915 1.66939525 16.09765625 -2.81640625 16.09765625 C-2.94140625 8.34765625 -2.94140625 8.34765625 -1.81640625 6.09765625 C-2.59279945 3.02312065 -2.59279945 3.02312065 -4.81640625 1.09765625 C-3.81640625 0.09765625 -3.81640625 0.09765625 0 0 Z " fill="#C1D4DB" transform="translate(130.81640625,111.90234375)"/>
<path d="M0 0 C5.28 0 10.56 0 16 0 C16 3.96 16 7.92 16 12 C15.01257812 12.06058594 14.02515625 12.12117188 13.0078125 12.18359375 C11.72648437 12.26738281 10.44515625 12.35117187 9.125 12.4375 C7.84882812 12.51871094 6.57265625 12.59992187 5.2578125 12.68359375 C2.11699848 12.79206027 2.11699848 12.79206027 0 14 C0 9.38 0 4.76 0 0 Z " fill="#DEE1E4" transform="translate(32,42)"/>
<path d="M0 0 C4.95 0 9.9 0 15 0 C16.125 6.75 16.125 6.75 14 11 C14.66 11 15.32 11 16 11 C16 12.65 16 14.3 16 16 C10.07771837 15.6446631 7.14979733 14.24411091 3 10 C0.6822871 6.21440226 0 4.4858015 0 0 Z " fill="#B5CCD5" transform="translate(106,112)"/>
<path d="M0 0 C10.04995766 -0.48433531 10.04995766 -0.48433531 14.1875 1.625 C16.46351526 4.60736483 16.4165657 6.33422184 16 10 C15.71125 9.401875 15.4225 8.80375 15.125 8.1875 C13.95257974 5.80672208 13.95257974 5.80672208 12 3 C9.57478506 2.41810734 9.57478506 2.41810734 6.875 2.3125 C5.96492188 2.24675781 5.05484375 2.18101562 4.1171875 2.11328125 C3.41851562 2.07589844 2.71984375 2.03851562 2 2 C2.66 3.32 3.32 4.64 4 6 C5.65 6 7.3 6 9 6 C9 5.34 9 4.68 9 4 C9.66 4 10.32 4 11 4 C11 6.97 11 9.94 11 13 C12.32 12.67 13.64 12.34 15 12 C13.6875 14 13.6875 14 11 16 C7.26642129 16.36529979 3.76583425 16.17932544 0 16 C0 10.72 0 5.44 0 0 Z " fill="#A1A3C1" transform="translate(33,864)"/>
<path d="M0 0 C2.1875 0.3125 2.1875 0.3125 4 1 C4 1.99 4 2.98 4 4 C5.98 4 7.96 4 10 4 C11.09643751 8.93396878 11.09643751 13.06603122 10 18 C8.02 18 6.04 18 4 18 C3.67 19.32 3.34 20.64 3 22 C1.35 21.67 -0.3 21.34 -2 21 C-2 20.01 -2 19.02 -2 18 C-3.98 18 -5.96 18 -8 18 C-9.09643751 13.06603122 -9.09643751 8.93396878 -8 4 C-7.236875 3.896875 -6.47375 3.79375 -5.6875 3.6875 C-2.95645104 3.2401537 -2.95645104 3.2401537 -1.4375 1.375 C-0.963125 0.92125 -0.48875 0.4675 0 0 Z M0 2 C-0.33 2.99 -0.66 3.98 -1 5 C-2.98 5.33 -4.96 5.66 -7 6 C-6.814375 7.093125 -6.62875 8.18625 -6.4375 9.3125 C-6 13 -6 13 -7 16 C-4.03 16.495 -4.03 16.495 -1 17 C-0.67 17.99 -0.34 18.98 0 20 C0.66 20 1.32 20 2 20 C2.33 19.01 2.66 18.02 3 17 C4.98 16.67 6.96 16.34 9 16 C8.814375 14.906875 8.62875 13.81375 8.4375 12.6875 C8 9 8 9 9 6 C6.03 5.505 6.03 5.505 3 5 C2.67 4.01 2.34 3.02 2 2 C1.34 2 0.68 2 0 2 Z " fill="#DDE0E4" transform="translate(1803,40)"/>
<path d="M0 0 C0 1.98 0 3.96 0 6 C2.76264289 6.59732819 5.16032769 7 8 7 C6.25 12.75 6.25 12.75 4 15 C-2.9273743 15.67039106 -2.9273743 15.67039106 -6.5 13.4375 C-8.58392818 10.05111671 -8.55802097 7.90614682 -8 4 C-5.35727941 0.31906775 -4.65584321 0 0 0 Z " fill="#BFC2C7" transform="translate(40,814)"/>
<path d="M0 0 C2 1.5625 2 1.5625 3 4 C2.67272727 10.32727273 2.67272727 10.32727273 0 13 C-6.00458716 13.54587156 -6.00458716 13.54587156 -8.9375 11.9375 C-10.6140629 8.88023824 -10.36528977 6.4093712 -10 3 C-7.7810369 -1.04634448 -4.19567567 -0.52445946 0 0 Z " fill="#EDF0ED" transform="translate(227,37)"/>
<path d="M0 0 C1.9375 1.0625 1.9375 1.0625 3 3 C3.36528977 6.4093712 3.6140629 8.88023824 1.9375 11.9375 C-1.15493758 13.63335287 -3.55514741 13.43060657 -7 13 C-9.66266871 10.76679398 -9.95347082 9.3799883 -10.375 5.9375 C-10 3 -10 3 -8.9375 1.125 C-5.8930714 -0.64273274 -3.4368988 -0.36823916 0 0 Z " fill="#CDD6D7" transform="translate(124,37)"/>
<path d="M0 0 C0 1.65 0 3.3 0 5 C-13.2 5 -26.4 5 -40 5 C-39.67 3.68 -39.34 2.36 -39 1 C-33.60653108 0.85741796 -28.21305771 0.71500585 -22.81958008 0.57275391 C-20.98331581 0.52429851 -19.14705279 0.475796 -17.31079102 0.42724609 C-14.67724932 0.35762454 -12.04370326 0.28817033 -9.41015625 0.21875 C-8.58411392 0.19687622 -7.75807159 0.17500244 -6.90699768 0.15246582 C-1.11387171 0 -1.11387171 0 0 0 Z " fill="#6E91A5" transform="translate(145,103)"/>
<path d="M0 0 C3.68085383 0.69016009 5.40498953 1.8911657 8 4.5625 C8 5.5525 8 6.5425 8 7.5625 C6.68 7.5625 5.36 7.5625 4 7.5625 C3.34 6.5725 2.68 5.5825 2 4.5625 C0.35 4.8925 -1.3 5.2225 -3 5.5625 C-3.020625 6.861875 -3.04125 8.16125 -3.0625 9.5 C-3.07410156 10.23089844 -3.08570312 10.96179688 -3.09765625 11.71484375 C-3.20561184 13.57982141 -3.20561184 13.57982141 -2 14.5625 C-0.33382885 14.60313832 1.33388095 14.605221 3 14.5625 C3.33 13.9025 3.66 13.2425 4 12.5625 C5.32 12.5625 6.64 12.5625 8 12.5625 C6.25 17.4375 6.25 17.4375 4 18.5625 C-3.13669065 19.25314748 -3.13669065 19.25314748 -6.5 16.5625 C-8.41597124 12.73055752 -8.97383359 9.7626866 -8 5.5625 C-5.55871269 2.11597674 -4.17033126 0.78193711 0 0 Z " fill="#DDE5E4" transform="translate(105,31.4375)"/>
<path d="M0 0 C0.804375 -0.00128906 1.60875 -0.00257812 2.4375 -0.00390625 C3.283125 -0.00003906 4.12875 0.00382812 5 0.0078125 C6.2684375 0.00201172 6.2684375 0.00201172 7.5625 -0.00390625 C8.366875 -0.00261719 9.17125 -0.00132813 10 0 C10.7425 0.00112793 11.485 0.00225586 12.25 0.00341797 C14 0.1328125 14 0.1328125 15 1.1328125 C15.09909302 3.46441305 15.12970504 5.79911192 15.125 8.1328125 C15.12886719 10.0509375 15.12886719 10.0509375 15.1328125 12.0078125 C15 15.1328125 15 15.1328125 14 16.1328125 C10.44169919 16.37852637 6.88428436 16.51720387 3.3203125 16.65625 C-0.14594037 17.15375923 -0.88979788 17.51951583 -3 20.1328125 C-3.66 20.1328125 -4.32 20.1328125 -5 20.1328125 C-5.02888514 16.98699827 -5.04675923 13.84121781 -5.0625 10.6953125 C-5.07087891 9.79748047 -5.07925781 8.89964844 -5.08789062 7.97460938 C-5.09111328 7.12060547 -5.09433594 6.26660156 -5.09765625 5.38671875 C-5.10551147 4.20057983 -5.10551147 4.20057983 -5.11352539 2.99047852 C-4.89918292 -0.51690185 -3.04503548 0.0046257 0 0 Z M-3 2.1328125 C-3 6.7528125 -3 11.3728125 -3 16.1328125 C-2.34 15.8028125 -1.68 15.4728125 -1 15.1328125 C1.37123246 14.90251294 3.74741943 14.72161308 6.125 14.5703125 C7.40632813 14.48652344 8.68765625 14.40273438 10.0078125 14.31640625 C10.99523438 14.25582031 11.98265625 14.19523437 13 14.1328125 C13 10.1728125 13 6.2128125 13 2.1328125 C7.72 2.1328125 2.44 2.1328125 -3 2.1328125 Z " fill="#121A2D" transform="translate(35,39.8671875)"/>
<path d="M0 0 C3.62416894 1.64734952 6.12851416 3.45402683 8 7 C8.41259969 10.78216379 8.32517815 13.24695586 6.8125 16.75 C3.79022645 20.50178785 1.33375077 21.80599989 -3.4375 22.5 C-8.19197325 21.83270551 -9.67221155 20.40702151 -13 17 C-14.21762731 13.34711807 -14.39075851 10.84245864 -14 7 C-10.35973954 0.90120542 -6.94453392 -0.47081586 0 0 Z M-11 6 C-12.14888518 9.94929279 -12.43129396 12.02958859 -10.75 15.8125 C-9.01308468 18.2102573 -9.01308468 18.2102573 -6 20 C-2.49825814 20.14825923 0.85736557 19.62660598 3.9375 17.9375 C5.68266041 14.75514867 6.20905365 11.57481734 6 8 C4.49868391 4.93209321 3.38498273 3.49051472 0.125 2.3359375 C-4.81820962 1.38099928 -7.65854483 1.94975131 -11 6 Z " fill="#DBDDE1" transform="translate(381,31)"/>
<path d="M0 0 C1.32 0 2.64 0 4 0 C4.12375 0.556875 4.2475 1.11375 4.375 1.6875 C5.05976855 4.22114364 5.99133763 6.57921032 7 9 C6.67 9.33 6.34 9.66 6 10 C5.76924918 11.34747084 5.58846937 12.70377565 5.4375 14.0625 C5.293125 15.361875 5.14875 16.66125 5 18 C5.66 18.33 6.32 18.66 7 19 C3.7 19 0.4 19 -3 19 C-2.34 18.67 -1.68 18.34 -1 18 C-1 16.35 -1 14.7 -1 13 C-1.66 13 -2.32 13 -3 13 C-2.68991116 11.39536551 -2.37683713 9.79130769 -2.0625 8.1875 C-1.88847656 7.29417969 -1.71445313 6.40085937 -1.53515625 5.48046875 C-1 3 -1 3 0 0 Z " fill="#212E44" transform="translate(123,110)"/>
<path d="M0 0 C6.15234375 -0.09765625 6.15234375 -0.09765625 8 0 C9 1 9 1 9.09765625 3.72265625 C9.08605469 4.82480469 9.07445312 5.92695312 9.0625 7.0625 C9.05347656 8.16722656 9.04445312 9.27195312 9.03515625 10.41015625 C9.02355469 11.26480469 9.01195312 12.11945312 9 13 C7.35425434 13.02688151 5.70838587 13.04634123 4.0625 13.0625 C3.14597656 13.07410156 2.22945312 13.08570313 1.28515625 13.09765625 C-1 13 -1 13 -2 12 C-2.1875 9.5625 -2.1875 9.5625 -2 7 C0 5 0 5 3.125 4.875 C4.07375 4.91625 5.0225 4.9575 6 5 C5.67 4.34 5.34 3.68 5 3 C2.69 3.33 0.38 3.66 -2 4 C-1.34 2.68 -0.68 1.36 0 0 Z " fill="#EDF2F2" transform="translate(192,37)"/>
<path d="M0 0 C3.63 0 7.26 0 11 0 C10.92547376 3.13010209 10.59006466 5.29383097 8.55078125 7.734375 C5.72126416 10.31224306 3.92152079 11.88235905 0.0625 12.375 C-0.618125 12.25125 -1.29875 12.1275 -2 12 C-2.21278058 7.53160785 -1.59138085 4.17737474 0 0 Z " fill="#BED2D8" transform="translate(464,801)"/>
<path d="M0 0 C3.63 0 7.26 0 11 0 C10.92547376 3.13010209 10.59006466 5.29383097 8.55078125 7.734375 C5.72126416 10.31224306 3.92152079 11.88235905 0.0625 12.375 C-0.618125 12.25125 -1.29875 12.1275 -2 12 C-2.21278058 7.53160785 -1.59138085 4.17737474 0 0 Z " fill="#BED2D8" transform="translate(461,54)"/>
<path d="M0 0 C2 2 2 2 2.125 4.625 C2.08375 5.40875 2.0425 6.1925 2 7 C-0.97 7 -3.94 7 -7 7 C-6.01 8.485 -6.01 8.485 -5 10 C-1.535 9.505 -1.535 9.505 2 9 C1.34 10.32 0.68 11.64 0 13 C-6.34507042 13.35915493 -6.34507042 13.35915493 -8.9375 11.9375 C-10.6140629 8.88023824 -10.36528977 6.4093712 -10 3 C-7.77611809 -1.05531408 -4.20231132 -0.3820283 0 0 Z " fill="#DFEBEE" transform="translate(165,37)"/>
<path d="M0 0 C6.3782235 -0.36103152 6.3782235 -0.36103152 8.9375 1.125 C10.50422245 3.88980433 10.38976435 5.88188517 10 9 C8.9375 10.875 8.9375 10.875 7 12 C3.3125 12.1875 3.3125 12.1875 0 12 C0 8.04 0 4.08 0 0 Z " fill="#C9C9B3" transform="translate(162,93)"/>
<path d="M0 0 C6.3782235 -0.36103152 6.3782235 -0.36103152 8.9375 1.125 C10.50422245 3.88980433 10.38976435 5.88188517 10 9 C8.9375 10.875 8.9375 10.875 7 12 C3.3125 12.1875 3.3125 12.1875 0 12 C0 8.04 0 4.08 0 0 Z " fill="#C9C9B3" transform="translate(482,45)"/>
<path d="M0 0 C9.75 0.75 9.75 0.75 12 3 C12.1953125 5.6015625 12.1953125 5.6015625 12.125 8.625 C12.10695312 9.62789062 12.08890625 10.63078125 12.0703125 11.6640625 C12.03550781 12.82035156 12.03550781 12.82035156 12 14 C11.01 14 10.02 14 9 14 C8.67 11.03 8.34 8.06 8 5 C6.68 4.67 5.36 4.34 4 4 C4 7.3 4 10.6 4 14 C2.68 14 1.36 14 0 14 C0 9.38 0 4.76 0 0 Z " fill="#C8D4D5" transform="translate(231,36)"/>
<path d="M0 0 C10.56 0 21.12 0 32 0 C32 1.32 32 2.64 32 4 C21.44 4 10.88 4 0 4 C0 2.68 0 1.36 0 0 Z " fill="#789CB0" transform="translate(444,793)"/>
<path d="M0 0 C10.56 0 21.12 0 32 0 C32 1.32 32 2.64 32 4 C21.44 4 10.88 4 0 4 C0 2.68 0 1.36 0 0 Z " fill="#789CB0" transform="translate(441,46)"/>
<path d="M0 0 C2.05078125 0.03255208 4.1015625 0.06510417 6.15234375 0.09765625 C6.48234375 1.08765625 6.81234375 2.07765625 7.15234375 3.09765625 C5.17234375 3.09765625 3.19234375 3.09765625 1.15234375 3.09765625 C2.04953125 3.53078125 2.04953125 3.53078125 2.96484375 3.97265625 C5.15234375 5.09765625 5.15234375 5.09765625 8.15234375 7.09765625 C7.27734375 11.97265625 7.27734375 11.97265625 6.15234375 13.09765625 C3.48175524 13.23880786 0.82802137 13.14012732 -1.84765625 13.09765625 C-2.50765625 11.77765625 -3.16765625 10.45765625 -3.84765625 9.09765625 C-1.53765625 9.42765625 0.77234375 9.75765625 3.15234375 10.09765625 C3.48234375 9.43765625 3.81234375 8.77765625 4.15234375 8.09765625 C3.18296875 7.95328125 2.21359375 7.80890625 1.21484375 7.66015625 C-1.84765625 7.09765625 -1.84765625 7.09765625 -2.84765625 6.09765625 C-2.97265625 3.59765625 -2.97265625 3.59765625 -2.84765625 1.09765625 C-1.84765625 0.09765625 -1.84765625 0.09765625 0 0 Z " fill="#DAE2E4" transform="translate(180.84765625,36.90234375)"/>
<path d="M0 0 C1.670625 0.061875 1.670625 0.061875 3.375 0.125 C3.45586147 1.91593191 3.51412702 3.70789628 3.5625 5.5 C3.59730469 6.49773437 3.63210937 7.49546875 3.66796875 8.5234375 C3.57128906 9.38195312 3.47460938 10.24046875 3.375 11.125 C0.375 13.125 0.375 13.125 -2.3125 12.75 C-3.075625 12.54375 -3.83875 12.3375 -4.625 12.125 C-4.625 11.465 -4.625 10.805 -4.625 10.125 C-2.975 10.455 -1.325 10.785 0.375 11.125 C0.375 10.465 0.375 9.805 0.375 9.125 C-0.429375 8.980625 -1.23375 8.83625 -2.0625 8.6875 C-4.625 8.125 -4.625 8.125 -5.625 7.125 C-5.8125 4.6875 -5.8125 4.6875 -5.625 2.125 C-3.625 0.125 -3.625 0.125 0 0 Z " fill="#CFCCBF" transform="translate(239.625,95.875)"/>
<path d="M0 0 C1.670625 0.061875 1.670625 0.061875 3.375 0.125 C3.45586147 1.91593191 3.51412702 3.70789628 3.5625 5.5 C3.59730469 6.49773438 3.63210938 7.49546875 3.66796875 8.5234375 C3.57128906 9.38195313 3.47460938 10.24046875 3.375 11.125 C0.375 13.125 0.375 13.125 -2.3125 12.75 C-3.075625 12.54375 -3.83875 12.3375 -4.625 12.125 C-4.625 11.465 -4.625 10.805 -4.625 10.125 C-2.975 10.455 -1.325 10.785 0.375 11.125 C0.375 10.465 0.375 9.805 0.375 9.125 C-0.429375 8.980625 -1.23375 8.83625 -2.0625 8.6875 C-4.625 8.125 -4.625 8.125 -5.625 7.125 C-5.8125 4.6875 -5.8125 4.6875 -5.625 2.125 C-3.625 0.125 -3.625 0.125 0 0 Z " fill="#CFCCBF" transform="translate(559.625,47.875)"/>
<path d="M0 0 C1.175625 0.0825 2.35125 0.165 3.5625 0.25 C4.2225 1.24 4.8825 2.23 5.5625 3.25 C1.5625 3.25 1.5625 3.25 -1.4375 2.25 C-1.4375 3.24 -1.4375 4.23 -1.4375 5.25 C1.5325 5.745 1.5325 5.745 4.5625 6.25 C5.1875 8.625 5.1875 8.625 5.5625 11.25 C3.5625 13.25 3.5625 13.25 0.0625 13.4375 C-3.4375 13.25 -3.4375 13.25 -5.4375 12.25 C-5.4375 11.26 -5.4375 10.27 -5.4375 9.25 C-3.1275 9.58 -0.8175 9.91 1.5625 10.25 C0.6653125 9.816875 0.6653125 9.816875 -0.25 9.375 C-2.4375 8.25 -2.4375 8.25 -5.4375 6.25 C-4.37278578 0.31802078 -4.37278578 0.31802078 0 0 Z " fill="#D3E3EE" transform="translate(250.4375,36.75)"/>
<path d="M0 0 C7.71484375 -0.09765625 7.71484375 -0.09765625 10 0 C11 1 11 1 11.09765625 3.72265625 C11.08605469 4.82480469 11.07445312 5.92695312 11.0625 7.0625 C11.05347656 8.16722656 11.04445312 9.27195312 11.03515625 10.41015625 C11.02355469 11.26480469 11.01195312 12.11945312 11 13 C10.01 13 9.02 13 8 13 C8 9.7 8 6.4 8 3 C6.68 3.33 5.36 3.66 4 4 C3.67 6.97 3.34 9.94 3 13 C2.01 13 1.02 13 0 13 C0 8.71 0 4.42 0 0 Z " fill="#E2EFF6" transform="translate(129,37)"/>
<path d="M0 0 C2.23828125 1.52734375 2.23828125 1.52734375 4 3 C3.2265625 2.91878906 2.453125 2.83757813 1.65625 2.75390625 C-4.26527493 2.39480387 -8.09706994 2.33642492 -12.6875 6.375 C-15.91147772 9.61900242 -17.16437204 11.66582948 -17.3125 16.25 C-17.28271374 20.87431729 -15.92396959 23.36718929 -13 27 C-12.67 27.66 -12.34 28.32 -12 29 C-15.78313414 27.7839926 -17.42897696 25.45489693 -19.23046875 21.98828125 C-20.90254007 17.66805638 -20.84260434 14.04685744 -19.1171875 9.85546875 C-14.75721001 2.07391952 -8.89148063 -1.02033384 0 0 Z " fill="#000010" transform="translate(1809,702)"/>
<path d="M0 0 C4.55555556 0.55555556 4.55555556 0.55555556 6 2 C6.23880597 9.52238806 6.23880597 9.52238806 5 12 C2.625 12.125 2.625 12.125 0 12 C-2 10 -2 10 -2.265625 8.125 C-2.26046875 7.42375 -2.2553125 6.7225 -2.25 6 C-2.25515625 5.29875 -2.2603125 4.5975 -2.265625 3.875 C-2 2 -2 2 0 0 Z " fill="#C9DAD7" transform="translate(503,784)"/>
<path d="M0 0 C1.875 0.125 1.875 0.125 4 1 C5.25 4.0625 5.25 4.0625 6 7 C6.99 4.69 7.98 2.38 9 0 C9.99 0 10.98 0 12 0 C11.40895235 4.84659077 10.02055843 8.60748167 8 13 C6.68 13 5.36 13 4 13 C3.32694982 11.39850114 2.66177773 9.79368971 2 8.1875 C1.62875 7.29417969 1.2575 6.40085937 0.875 5.48046875 C0 3 0 3 0 0 Z " fill="#D7E3E0" transform="translate(142,37)"/>
<path d="M0 0 C4 1 4 1 5.75 3.5625 C6.1625 4.366875 6.575 5.17125 7 6 C7.33 4.02 7.66 2.04 8 0 C8.66 0 9.32 0 10 0 C10 3.96 10 7.92 10 12 C6 11 6 11 4.75 8.9375 C4.37875 7.9784375 4.37875 7.9784375 4 7 C3.67 8.65 3.34 10.3 3 12 C2.01 12 1.02 12 0 12 C0 8.04 0 4.08 0 0 Z " fill="#D2C9A9" transform="translate(213,93)"/>
<path d="M0 0 C4 1 4 1 5.75 3.5625 C6.1625 4.366875 6.575 5.17125 7 6 C7.33 4.02 7.66 2.04 8 0 C8.66 0 9.32 0 10 0 C10 3.96 10 7.92 10 12 C6 11 6 11 4.75 8.9375 C4.37875 7.9784375 4.37875 7.9784375 4 7 C3.67 8.65 3.34 10.3 3 12 C2.01 12 1.02 12 0 12 C0 8.04 0 4.08 0 0 Z " fill="#D2C9A9" transform="translate(533,45)"/>
<path d="M0 0 C6.01618347 1.88005734 11.42532955 4.06062831 17 7 C16.67 7.66 16.34 8.32 16 9 C11.38 9 6.76 9 2 9 C1.34 6.03 0.68 3.06 0 0 Z " fill="#283041" transform="translate(1795,855)"/>
<path d="M0 0 C2.97 0.495 2.97 0.495 6 1 C6.02688151 2.64574566 6.04634123 4.29161413 6.0625 5.9375 C6.07410156 6.85402344 6.08570313 7.77054688 6.09765625 8.71484375 C6 11 6 11 5 12 C3.00041636 12.04080783 0.99954746 12.04254356 -1 12 C-2.36884358 7.48281619 -1.47075246 4.41225737 0 0 Z " fill="#868F9A" transform="translate(513,784)"/>
<path d="M0 0 C2.93453261 0.36681658 3.86437246 0.86437246 6 3 C6.34490322 7.05261287 6.30163882 8.54754176 4 12 C1.4375 12.25 1.4375 12.25 -1 12 C-2.58894072 10.41105928 -2.16998411 8.75198576 -2.1875 6.5625 C-2.20167969 5.75941406 -2.21585938 4.95632813 -2.23046875 4.12890625 C-2 2 -2 2 0 0 Z " fill="#41456A" transform="translate(1731,704)"/>
<path d="M0 0 C0.66 0 1.32 0 2 0 C5.48214286 6.5625 5.48214286 6.5625 4.1875 10.9375 C3.795625 11.948125 3.40375 12.95875 3 14 C3.99 14.33 4.98 14.66 6 15 C2.7 15 -0.6 15 -4 15 C-3.34 14.67 -2.68 14.34 -2 14 C-2.2784375 12.4221875 -2.2784375 12.4221875 -2.5625 10.8125 C-2.95390511 7.40168408 -3.01610973 5.23307643 -2 2 C-1.34 1.34 -0.68 0.68 0 0 Z " fill="#222E41" transform="translate(459,799)"/>
<path d="M0 0 C0.66 0 1.32 0 2 0 C5.48214286 6.5625 5.48214286 6.5625 4.1875 10.9375 C3.795625 11.948125 3.40375 12.95875 3 14 C3.99 14.33 4.98 14.66 6 15 C2.7 15 -0.6 15 -4 15 C-3.34 14.67 -2.68 14.34 -2 14 C-2.2784375 12.4221875 -2.2784375 12.4221875 -2.5625 10.8125 C-2.95390511 7.40168408 -3.01610973 5.23307643 -2 2 C-1.34 1.34 -0.68 0.68 0 0 Z " fill="#222E41" transform="translate(456,52)"/>
<path d="M0 0 C1.32278481 5.41139241 1.32278481 5.41139241 -0.0625 7.9375 C-2.91093248 9.49954362 -4.93504903 8.74921024 -8 8 C-9.32278481 2.58860759 -9.32278481 2.58860759 -7.9375 0.0625 C-5.08906752 -1.49954362 -3.06495097 -0.74921024 0 0 Z " fill="#E3E5E9" transform="translate(41,97)"/>
<path d="M0 0 C12.46024735 -0.41077739 12.46024735 -0.41077739 17 3 C19.1519437 6.22791555 19.20086443 7.28400809 19 11 C18.34 11 17.68 11 17 11 C16.71125 9.865625 16.4225 8.73125 16.125 7.5625 C15.75375 6.386875 15.3825 5.21125 15 4 C12.43106162 2.71553081 10.23423663 2.67022856 7.375 2.4375 C5.60125 2.293125 3.8275 2.14875 2 2 C2 7.28 2 12.56 2 18 C1.34 18 0.68 18 0 18 C0 12.06 0 6.12 0 0 Z " fill="#C5C5CD" transform="translate(1797,709)"/>
<path d="M0 0 C1.32 0 2.64 0 4 0 C4 0.99 4 1.98 4 3 C4.66 3 5.32 3 6 3 C6 3.66 6 4.32 6 5 C5.34 5 4.68 5 4 5 C4 7.64 4 10.28 4 13 C4.66 13 5.32 13 6 13 C6 13.99 6 14.98 6 16 C4.33388095 16.042721 2.66617115 16.04063832 1 16 C0 15 0 15 -0.09765625 12.71484375 C-0.08025391 11.34005859 -0.08025391 11.34005859 -0.0625 9.9375 C-0.05347656 9.01839844 -0.04445312 8.09929688 -0.03515625 7.15234375 C-0.02355469 6.44207031 -0.01195312 5.73179688 0 5 C-0.66 5 -1.32 5 -2 5 C-2 4.34 -2 3.68 -2 3 C-1.34 3 -0.68 3 0 3 C0 2.01 0 1.02 0 0 Z " fill="#D5E0E2" transform="translate(204,34)"/>
<path d="M0 0 C1.32 0.66 2.64 1.32 4 2 C4.36490759 7.12897894 4.56057961 10.89817111 2.1875 15.5625 C0 18 0 18 -3 19 C-7.95337583 19.23967948 -11.48141403 19.25929298 -16 17 C-16 16.67 -16 16.34 -16 16 C-15.18015625 15.95101562 -14.3603125 15.90203125 -13.515625 15.8515625 C-12.43796875 15.77679687 -11.3603125 15.70203125 -10.25 15.625 C-9.18265625 15.55539062 -8.1153125 15.48578125 -7.015625 15.4140625 C-4.15915046 15.02185226 -2.36375378 14.62370003 0 13 C0.33 12.01 0.66 11.02 1 10 C1.66 10 2.32 10 3 10 C2.5359375 8.081875 2.5359375 8.081875 2.0625 6.125 C1.88847656 5.40570312 1.71445313 4.68640625 1.53515625 3.9453125 C1.05153008 1.9414343 1.05153008 1.9414343 0 0 Z " fill="#02034C" transform="translate(1813,711)"/>
<path d="M0 0 C2.875 -0.125 2.875 -0.125 6 0 C8 2 8 2 8.25 5 C8 8 8 8 6 10 C2.875 10.125 2.875 10.125 0 10 C0 6.7 0 3.4 0 0 Z " fill="#7A95A5" transform="translate(162,116)"/>
<path d="M0 0 C1.6026782 -0.10824843 3.20745748 -0.18570645 4.8125 -0.25 C5.70582031 -0.29640625 6.59914063 -0.3428125 7.51953125 -0.390625 C10 0 10 0 11.78125 1.75 C13.63911103 5.17989729 13.67771981 8.13263768 14 12 C12.35 11.67 10.7 11.34 9 11 C8.15545644 7.62182575 7.89155081 5.32534757 9 2 C8.34 2 7.68 2 7 2 C7 2.66 7 3.32 7 4 C6.21625 3.95875 5.4325 3.9175 4.625 3.875 C1.83883881 3.71271266 1.83883881 3.71271266 0 6 C0 4.02 0 2.04 0 0 Z " fill="#0C0D75" transform="translate(35,866)"/>
<path d="M0 0 C1.04028969 3.38094149 1.15672777 6.47362528 1 10 C0 11 0 11 -2.5625 11.0625 C-3.366875 11.041875 -4.17125 11.02125 -5 11 C-5.87867729 7.26562152 -6.08912219 3.83225427 -6 0 C-3.50907189 -1.24546405 -2.58919267 -0.7767578 0 0 Z " fill="#717284" transform="translate(1745,705)"/>
<path d="M0 0 C2.5 1.5 2.5 1.5 4 3 C3.67 4.32 3.34 5.64 3 7 C2.01 6.67 1.02 6.34 0 6 C-2.05893621 5.77674186 -4.12233653 5.59294241 -6.1875 5.4375 C-7.27417969 5.35371094 -8.36085938 5.26992188 -9.48046875 5.18359375 C-10.31191406 5.12300781 -11.14335938 5.06242188 -12 5 C-9.45082376 -0.64460453 -5.91223856 -0.70105596 0 0 Z " fill="#040447" transform="translate(1809,704)"/>
<path d="M0 0 C0.33 0.66 0.66 1.32 1 2 C4.63 2 8.26 2 12 2 C6.56777494 7.73401535 6.56777494 7.73401535 3 9 C1.68 9 0.36 9 -1 9 C-1.09765625 2.84765625 -1.09765625 2.84765625 -1 1 C-0.67 0.67 -0.34 0.34 0 0 Z " fill="#849497" transform="translate(129,119)"/>
<path d="M0 0 C0.78375 0.04125 1.5675 0.0825 2.375 0.125 C2.40188151 1.77074566 2.42134123 3.41661413 2.4375 5.0625 C2.44910156 5.97902344 2.46070313 6.89554687 2.47265625 7.83984375 C2.375 10.125 2.375 10.125 1.375 11.125 C-0.29117115 11.16563832 -1.95888095 11.167721 -3.625 11.125 C-3.955 10.465 -4.285 9.805 -4.625 9.125 C-3.965 8.795 -3.305 8.465 -2.625 8.125 C-3.285 7.795 -3.945 7.465 -4.625 7.125 C-4.75 4.75 -4.75 4.75 -4.625 2.125 C-2.625 0.125 -2.625 0.125 0 0 Z " fill="#7590A8" transform="translate(229.625,117.875)"/>
<path d="M0 0 C1.20628008 2.33214148 2.1654738 4.49642139 3 7 C5.97 7.495 5.97 7.495 9 8 C8.67 8.99 8.34 9.98 8 11 C1.62573591 12.32296047 1.62573591 12.32296047 -0.9375 11 C-2.56192132 7.94226576 -2.30839752 5.39237275 -2 2 C-1.34 1.34 -0.68 0.68 0 0 Z " fill="#0D1321" transform="translate(36,816)"/>
<path d="M0 0 C3.125 0.375 3.125 0.375 6 1 C6.04241723 3.33294775 6.04092937 5.66702567 6 8 C5 9 5 9 2.5625 9.1875 C0 9 0 9 -2 7 C-2.25 4.5 -2.25 4.5 -2 2 C-1.34 1.34 -0.68 0.68 0 0 Z " fill="#C3D9DE" transform="translate(529,759)"/>
<path d="M0 0 C3.63 0 7.26 0 11 0 C11 0.66 11 1.32 11 2 C11.66 2 12.32 2 13 2 C13 3.65 13 5.3 13 7 C6.86592242 6.63195535 4.26093821 5.15701288 0 1 C0 0.67 0 0.34 0 0 Z " fill="#7A898E" transform="translate(109,121)"/>
<path d="M0 0 C0.99 0 1.98 0 3 0 C3 0.99 3 1.98 3 3 C4.65 3.33 6.3 3.66 8 4 C8 6.64 8 9.28 8 12 C7.34 12 6.68 12 6 12 C6 9.69 6 7.38 6 5 C5.01 5 4.02 5 3 5 C3 7.31 3 9.62 3 12 C2.01 12 1.02 12 0 12 C0 8.04 0 4.08 0 0 Z " fill="#CEDDDF" transform="translate(173,93)"/>
<path d="M0 0 C0.99 0 1.98 0 3 0 C3 0.99 3 1.98 3 3 C4.65 3.33 6.3 3.66 8 4 C8 6.64 8 9.28 8 12 C7.34 12 6.68 12 6 12 C6 9.69 6 7.38 6 5 C5.01 5 4.02 5 3 5 C3 7.31 3 9.62 3 12 C2.01 12 1.02 12 0 12 C0 8.04 0 4.08 0 0 Z " fill="#CEDDDF" transform="translate(493,45)"/>
<path d="M0 0 C3.49372257 1.5661515 6.23848767 3.06160499 7.6875 6.75 C8.5480495 12.9459564 8.08239885 17.47294 5 23 C2.5 25 2.5 25 0 26 C-0.99 25.67 -1.98 25.34 -3 25 C-2.05125 24.5875 -1.1025 24.175 -0.125 23.75 C3.19394042 21.89139337 3.7310767 21.40384166 5 18 C5.35084117 15.48004921 5.35084117 15.48004921 5.3125 12.875 C5.32925781 12.00617187 5.34601563 11.13734375 5.36328125 10.2421875 C5.24339844 9.50226562 5.12351562 8.76234375 5 8 C4.01 7.34 3.02 6.68 2 6 C0.8125 2.875 0.8125 2.875 0 0 Z " fill="#00002D" transform="translate(1811,705)"/>
<path d="M0 0 C4 1 4 1 6 4 C6.33 2.68 6.66 1.36 7 0 C7.66 0 8.32 0 9 0 C9 3.3 9 6.6 9 10 C5 8 5 8 3 5 C2.67 6.65 2.34 8.3 2 10 C1.34 10 0.68 10 0 10 C0 6.7 0 3.4 0 0 Z " fill="#6F91AB" transform="translate(206,116)"/>
<path d="M0 0 C0 1.65 0 3.3 0 5 C-6.6 4.34 -13.2 3.68 -20 3 C-16.98956429 -0.01043571 -13.4845907 0.53357988 -9.4375 0.375 C-8.24737305 0.31699219 -8.24737305 0.31699219 -7.03320312 0.2578125 C-1.6421596 0 -1.6421596 0 0 0 Z " fill="#789AAE" transform="translate(145,103)"/>
<path d="M0 0 C2.97 0 5.94 0 9 0 C9 0.99 9 1.98 9 3 C6.69 2.67 4.38 2.34 2 2 C2 2.99 2 3.98 2 5 C8.28908482 4.47519999 8.28908482 4.47519999 14 2 C13 5 13 5 11.234375 6.1796875 C8.74281777 7.09442005 6.89383164 7.20275975 4.25 7.125 C3.45078125 7.10695313 2.6515625 7.08890625 1.828125 7.0703125 C1.22484375 7.04710937 0.6215625 7.02390625 0 7 C0 4.69 0 2.38 0 0 Z " fill="#DEDEEC" transform="translate(1800,720)"/>
<path d="M0 0 C2.64 0 5.28 0 8 0 C8 0.99 8 1.98 8 3 C6.68 3.33 5.36 3.66 4 4 C3.67 6.97 3.34 9.94 3 13 C2.01 13 1.02 13 0 13 C0 8.71 0 4.42 0 0 Z " fill="#E2EDEC" transform="translate(169,37)"/>
<path d="M0 0 C4.95 0 9.9 0 15 0 C14.34 1.32 13.68 2.64 13 4 C9.37 4 5.74 4 2 4 C1.34 2.68 0.68 1.36 0 0 Z " fill="#A7BEC7" transform="translate(107,117)"/>
<path d="M0 0 C2.625 0.375 2.625 0.375 5 1 C5.625 3.375 5.625 3.375 6 6 C5.34 6.66 4.68 7.32 4 8 C1.375 7.625 1.375 7.625 -1 7 C-1.625 4.625 -1.625 4.625 -2 2 C-1.34 1.34 -0.68 0.68 0 0 Z " fill="#647E8C" transform="translate(274,118)"/>
<path d="M0 0 C0.33 1.32 0.66 2.64 1 4 C-0.98 4 -2.96 4 -5 4 C-5 4.66 -5 5.32 -5 6 C-3.35 6 -1.7 6 0 6 C0 6.66 0 7.32 0 8 C-1.99954746 8.04254356 -4.00041636 8.04080783 -6 8 C-7 7 -7 7 -7.0625 3.4375 C-7.041875 2.303125 -7.02125 1.16875 -7 0 C-4.3333581 -1.33332095 -2.83319697 -0.67102033 0 0 Z " fill="#E1EAEA" transform="translate(232,97)"/>
<path d="M0 0 C2.625 0.375 2.625 0.375 5 1 C5.625 3.375 5.625 3.375 6 6 C5.34 6.66 4.68 7.32 4 8 C1.375 7.625 1.375 7.625 -1 7 C-1.625 4.625 -1.625 4.625 -2 2 C-1.34 1.34 -0.68 0.68 0 0 Z " fill="#999FA8" transform="translate(1802,47)"/>
<path d="M0 0 C0.33 1.32 0.66 2.64 1 4 C-0.98 4 -2.96 4 -5 4 C-5 4.66 -5 5.32 -5 6 C-3.35 6 -1.7 6 0 6 C0 6.66 0 7.32 0 8 C-1.99954746 8.04254356 -4.00041636 8.04080783 -6 8 C-7 7 -7 7 -7.0625 3.4375 C-7.041875 2.303125 -7.02125 1.16875 -7 0 C-4.3333581 -1.33332095 -2.83319697 -0.67102033 0 0 Z " fill="#E1EAEA" transform="translate(552,49)"/>
<path d="M0 0 C0.99 0 1.98 0 3 0 C3 0.99 3 1.98 3 3 C3.639375 3.144375 4.27875 3.28875 4.9375 3.4375 C7 4 7 4 8 5 C8.04092937 7.33297433 8.04241723 9.66705225 8 12 C7.34 12 6.68 12 6 12 C6 9.69 6 7.38 6 5 C4.68 5 3.36 5 2 5 C2 7.31 2 9.62 2 12 C1.34 12 0.68 12 0 12 C0 8.04 0 4.08 0 0 Z " fill="#746F74" transform="translate(1728,676)"/>
<path d="M0 0 C0.66 0 1.32 0 2 0 C2 2.31 2 4.62 2 7 C2.99 7 3.98 7 5 7 C5 4.69 5 2.38 5 0 C5.99 0 6.98 0 8 0 C8 2.97 8 5.94 8 9 C5.66705225 9.04241723 3.33297433 9.04092937 1 9 C0 8 0 8 -0.09765625 6.15234375 C-0.06510417 4.1015625 -0.03255208 2.05078125 0 0 Z " fill="#CDD2CD" transform="translate(190,96)"/>
<path d="M0 0 C0.66 0 1.32 0 2 0 C2 2.31 2 4.62 2 7 C2.99 7 3.98 7 5 7 C5 4.69 5 2.38 5 0 C5.99 0 6.98 0 8 0 C8 2.97 8 5.94 8 9 C5.66705225 9.04241723 3.33297433 9.04092937 1 9 C0 8 0 8 -0.09765625 6.15234375 C-0.06510417 4.1015625 -0.03255208 2.05078125 0 0 Z " fill="#CDD2CD" transform="translate(510,48)"/>
<path d="M0 0 C-0.185625 1.093125 -0.37125 2.18625 -0.5625 3.3125 C-1.2578068 6.93624133 -1.2578068 6.93624133 0 10 C-1.98 10.33 -3.96 10.66 -6 11 C-6.33 11.99 -6.66 12.98 -7 14 C-7.66 14 -8.32 14 -9 14 C-9.66 12.35 -10.32 10.7 -11 9 C-9.02 8.34 -7.04 7.68 -5 7 C-5 5.02 -5 3.04 -5 1 C-2 0 -2 0 0 0 Z " fill="#293345" transform="translate(1812,46)"/>
<path d="M0 0 C0.66 0.33 1.32 0.66 2 1 C2 5.62 2 10.24 2 15 C2.99 15 3.98 15 5 15 C3.71937515 16.7074998 2.38232443 18.37373596 1 20 C0.34 20 -0.32 20 -1 20 C-1.02888514 16.85418577 -1.04675923 13.70840531 -1.0625 10.5625 C-1.07087891 9.66466797 -1.07925781 8.76683594 -1.08789062 7.84179688 C-1.09111328 6.98779297 -1.09433594 6.13378906 -1.09765625 5.25390625 C-1.10551147 4.06776733 -1.10551147 4.06776733 -1.11352539 2.85766602 C-1 1 -1 1 0 0 Z " fill="#182033" transform="translate(31,40)"/>
<path d="M0 0 C3.125 0.375 3.125 0.375 6 1 C6 2.32 6 3.64 6 5 C4.02 5 2.04 5 0 5 C0.33 5.66 0.66 6.32 1 7 C2.65 7 4.3 7 6 7 C5.67 7.66 5.34 8.32 5 9 C2.625 9.125 2.625 9.125 0 9 C-2 7 -2 7 -2.25 4.5 C-2 2 -2 2 0 0 Z " fill="#DBEAEB" transform="translate(512,759)"/>
<path d="M0 0 C1.67542976 0.28604898 3.34385343 0.61781233 5 1 C5 3.64 5 6.28 5 9 C3.02 9 1.04 9 -1 9 C-1.33 7.68 -1.66 6.36 -2 5 C-0.35 4.67 1.3 4.34 3 4 C3 3.34 3 2.68 3 2 C1.68 1.67 0.36 1.34 -1 1 C-0.67 0.67 -0.34 0.34 0 0 Z " fill="#5E758C" transform="translate(458,858)"/>
<path d="M0 0 C0.66 0 1.32 0 2 0 C2 0.99 2 1.98 2 3 C3.65 3.33 5.3 3.66 7 4 C7 6.64 7 9.28 7 12 C6.34 12 5.68 12 5 12 C5 9.69 5 7.38 5 5 C4.01 5 3.02 5 2 5 C2 7.31 2 9.62 2 12 C1.34 12 0.68 12 0 12 C0 8.04 0 4.08 0 0 Z " fill="#68838A" transform="translate(479,855)"/>
<path d="M0 0 C4.18289009 -0.08201745 7.9188402 0.11758707 12 1 C13.32 1 14.64 1 16 1 C16 1.66 16 2.32 16 3 C14.88625 3.2475 13.7725 3.495 12.625 3.75 C8.95384802 4.61005339 8.95384802 4.61005339 7.5625 7.125 C7.376875 7.74375 7.19125 8.3625 7 9 C6.979375 8.401875 6.95875 7.80375 6.9375 7.1875 C6.09543384 4.56685398 6.09543384 4.56685398 2.4375 3.25 C1.303125 2.8375 0.16875 2.425 -1 2 C-0.67 1.34 -0.34 0.68 0 0 Z " fill="#1B1E35" transform="translate(182,39)"/>
<path d="M0 0 C3.53571429 0.53571429 3.53571429 0.53571429 5 2 C5.07226502 3.85287502 5.0838122 5.70833878 5.0625 7.5625 C5.05347656 8.57441406 5.04445312 9.58632813 5.03515625 10.62890625 C5.02355469 11.41136719 5.01195312 12.19382812 5 13 C4.01 13 3.02 13 2 13 C1.96261719 12.37351562 1.92523438 11.74703125 1.88671875 11.1015625 C1.82097656 10.28429688 1.75523437 9.46703125 1.6875 8.625 C1.62949219 7.81289063 1.57148438 7.00078125 1.51171875 6.1640625 C1.17009472 3.62078662 1.17009472 3.62078662 -2 2 C-1.34 1.34 -0.68 0.68 0 0 Z " fill="#EDEFE7" transform="translate(238,37)"/>
<path d="M0 0 C5.94 0 11.88 0 18 0 C18.33 1.32 18.66 2.64 19 4 C18.01 4.66 17.02 5.32 16 6 C16 4.68 16 3.36 16 2 C11.05 2 6.1 2 1 2 C0.67 2.66 0.34 3.32 0 4 C0 2.68 0 1.36 0 0 Z " fill="#7B9BB1" transform="translate(105,110)"/>
<path d="M0 0 C0.95024979 3.69541586 0.95024979 6.30458414 0 10 C-0.66 9.67 -1.32 9.34 -2 9 C-2 7.35 -2 5.7 -2 4 C-5 2.66666667 -5 2.66666667 -8 4 C-8.33 5.98 -8.66 7.96 -9 10 C-9.33 10 -9.66 10 -10 10 C-10.35915493 3.65492958 -10.35915493 3.65492958 -8.9375 1.0625 C-5.98831309 -0.55479605 -3.29132441 -0.18630138 0 0 Z " fill="#D7EAF3" transform="translate(227,37)"/>
<path d="M0 0 C0.99 0 1.98 0 3 0 C3.33 0.99 3.66 1.98 4 3 C4.66 2.01 5.32 1.02 6 0 C6.99 0.33 7.98 0.66 9 1 C8.01 3.64 7.02 6.28 6 9 C4.68 8.67 3.36 8.34 2 8 C0.47835901 5.10888212 0 3.28176588 0 0 Z " fill="#D7DFD9" transform="translate(199,96)"/>
<path d="M0 0 C0.99 0 1.98 0 3 0 C3.33 0.99 3.66 1.98 4 3 C4.66 2.01 5.32 1.02 6 0 C6.99 0.33 7.98 0.66 9 1 C8.01 3.64 7.02 6.28 6 9 C4.68 8.67 3.36 8.34 2 8 C0.47835901 5.10888212 0 3.28176588 0 0 Z " fill="#D7DFD9" transform="translate(519,48)"/>
<path d="M0 0 C0.66 0.33 1.32 0.66 2 1 C1.52083333 8.1875 1.52083333 8.1875 -0.5625 11.4375 C-4.03629214 13.66428983 -6.89938553 13.7266257 -11 14 C-11.33 13.34 -11.66 12.68 -12 12 C-11.38511719 11.88785156 -10.77023437 11.77570312 -10.13671875 11.66015625 C-7.4922934 11.01486585 -5.36638648 10.35941351 -3 9 C-1.34440765 6.11804295 -0.59385959 3.2559888 0 0 Z " fill="#DBDDE1" transform="translate(387,39)"/>
<path d="M0 0 C1.65 0.33 3.3 0.66 5 1 C4.125 5.875 4.125 5.875 3 7 C-3.52542373 7.23728814 -3.52542373 7.23728814 -6 6 C-6 5.01 -6 4.02 -6 3 C-3.69 3.33 -1.38 3.66 1 4 C0.67 2.68 0.34 1.36 0 0 Z " fill="#E8EEED" transform="translate(251,43)"/>
<path d="M0 0 C2.97 0 5.94 0 9 0 C9.33 1.98 9.66 3.96 10 6 C5.96825194 5.72510809 4.43105369 5.46508424 1.625 2.4375 C0.820625 1.2309375 0.820625 1.2309375 0 0 Z " fill="#81939A" transform="translate(447,807)"/>
<path d="M0 0 C-0.33 1.32 -0.66 2.64 -1 4 C-1 3.34 -1 2.68 -1 2 C-4.63 2 -8.26 2 -12 2 C-12.33 3.32 -12.66 4.64 -13 6 C-15 3 -15 3 -15 0 C-13.25093341 -0.19601608 -11.50068154 -0.38147403 -9.75 -0.5625 C-8.77546875 -0.66691406 -7.8009375 -0.77132812 -6.796875 -0.87890625 C-4.2368648 -0.98974468 -2.41851841 -0.77738092 0 0 Z " fill="#98B0BE" transform="translate(476,799)"/>
<path d="M0 0 C1.67542976 0.28604898 3.34385343 0.61781233 5 1 C5 2.32 5 3.64 5 5 C4.01 5.495 4.01 5.495 3 6 C3.66 6 4.32 6 5 6 C5 6.66 5 7.32 5 8 C2.625 8.125 2.625 8.125 0 8 C-0.66 7.34 -1.32 6.68 -2 6 C-1.44444444 1.44444444 -1.44444444 1.44444444 0 0 Z " fill="#5B7287" transform="translate(259,118)"/>
<path d="M0 0 C2.125 0.375 2.125 0.375 4 1 C4.33 2.32 4.66 3.64 5 5 C4.01 5.33 3.02 5.66 2 6 C2.99 6.33 3.98 6.66 5 7 C4 8 4 8 1.5 8.125 C-1 8 -1 8 -2 7 C-2.1875 4.5625 -2.1875 4.5625 -2 2 C-1.34 1.34 -0.68 0.68 0 0 Z " fill="#708697" transform="translate(219,118)"/>
<path d="M0 0 C1.32 0 2.64 0 4 0 C4 3 4 6 4 9 C2.02 9.99 2.02 9.99 0 11 C-1 10 -1 10 -1.125 6.625 C-1 3 -1 3 0 0 Z " fill="#1B2536" transform="translate(123,110)"/>
<path d="M0 0 C2.97 0 5.94 0 9 0 C9.33 1.98 9.66 3.96 10 6 C5.96825194 5.72510809 4.43105369 5.46508424 1.625 2.4375 C0.820625 1.2309375 0.820625 1.2309375 0 0 Z " fill="#81939A" transform="translate(444,60)"/>
<path d="M0 0 C-0.33 1.32 -0.66 2.64 -1 4 C-1 3.34 -1 2.68 -1 2 C-4.63 2 -8.26 2 -12 2 C-12.33 3.32 -12.66 4.64 -13 6 C-15 3 -15 3 -15 0 C-13.25093341 -0.19601608 -11.50068154 -0.38147403 -9.75 -0.5625 C-8.77546875 -0.66691406 -7.8009375 -0.77132812 -6.796875 -0.87890625 C-4.2368648 -0.98974468 -2.41851841 -0.77738092 0 0 Z " fill="#98B0BE" transform="translate(473,52)"/>
<path d="M0 0 C1.32 0.66 2.64 1.32 4 2 C4 3.65 4 5.3 4 7 C2.02 7.99 2.02 7.99 0 9 C-2 7 -2 7 -2.25 4.5 C-2 2 -2 2 0 0 Z " fill="#251C2C" transform="translate(222,39)"/>
<path d="M0 0 C0.33 0.66 0.66 1.32 1 2 C3.64 2 6.28 2 9 2 C4.69230769 6.92307692 4.69230769 6.92307692 1.1875 7.3125 C0.1046875 7.1578125 0.1046875 7.1578125 -1 7 C-1.04254356 5.00045254 -1.04080783 2.99958364 -1 1 C-0.67 0.67 -0.34 0.34 0 0 Z " fill="#819093" transform="translate(463,806)"/>
<path d="M0 0 C2.625 0.375 2.625 0.375 5 1 C5 2.32 5 3.64 5 5 C3.02 5 1.04 5 -1 5 C-0.67 5.66 -0.34 6.32 0 7 C1.65 7 3.3 7 5 7 C4.67 7.66 4.34 8.32 4 9 C2.33388095 9.042721 0.66617115 9.04063832 -1 9 C-2 8 -2 8 -2.1875 5.0625 C-2 2 -2 2 0 0 Z " fill="#5E5D6F" transform="translate(1740,679)"/>
<path d="M0 0 C0.33 0.66 0.66 1.32 1 2 C3.64 2 6.28 2 9 2 C4.69230769 6.92307692 4.69230769 6.92307692 1.1875 7.3125 C0.1046875 7.1578125 0.1046875 7.1578125 -1 7 C-1.04254356 5.00045254 -1.04080783 2.99958364 -1 1 C-0.67 0.67 -0.34 0.34 0 0 Z " fill="#819093" transform="translate(460,59)"/>
<path d="M0 0 C0.33 0 0.66 0 1 0 C1 5.28 1 10.56 1 16 C-2 13 -2 13 -2.36328125 10.37109375 C-2.34652344 9.40300781 -2.32976563 8.43492187 -2.3125 7.4375 C-2.30863281 6.46683594 -2.30476563 5.49617187 -2.30078125 4.49609375 C-2 2 -2 2 0 0 Z " fill="#090B59" transform="translate(32,864)"/>
<path d="M0 0 C0.66 0 1.32 0 2 0 C2.66 1.65 3.32 3.3 4 5 C4.66 3.35 5.32 1.7 6 0 C6.66 0 7.32 0 8 0 C4.98165138 10.01834862 4.98165138 10.01834862 2 13 C1.34 13 0.68 13 0 13 C0 12.34 0 11.68 0 11 C0.66 11 1.32 11 2 11 C1.34 7.37 0.68 3.74 0 0 Z " fill="#64808F" transform="translate(465,858)"/>
<path d="M0 0 C0.66 0 1.32 0 2 0 C2 0.99 2 1.98 2 3 C3.65 3.33 5.3 3.66 7 4 C7 6.64 7 9.28 7 12 C6.67 12 6.34 12 6 12 C6 9.69 6 7.38 6 5 C4.68 5 3.36 5 2 5 C2 7.31 2 9.62 2 12 C1.34 12 0.68 12 0 12 C0 8.04 0 4.08 0 0 Z " fill="#DAE4DD" transform="translate(501,756)"/>
<path d="M0 0 C2.0625 0.4375 2.0625 0.4375 4 1 C4 3.31 4 5.62 4 8 C2.68 8.33 1.36 8.66 0 9 C-1.36623674 6.26752652 -1.128426 4.01801098 -1 1 C-0.67 0.67 -0.34 0.34 0 0 Z " fill="#E6F0EC" transform="translate(1731,706)"/>
<path d="M0 0 C0.66 0 1.32 0 2 0 C2.33 0.66 2.66 1.32 3 2 C5.02463255 2.65213292 5.02463255 2.65213292 7 3 C7 5.31 7 7.62 7 10 C6.34 10 5.68 10 5 10 C5 8.02 5 6.04 5 4 C4.01 4 3.02 4 2 4 C2 5.98 2 7.96 2 10 C1.34 10 0.68 10 0 10 C0 6.7 0 3.4 0 0 Z " fill="#6992A8" transform="translate(172,116)"/>
<path d="M0 0 C0.66 0 1.32 0 2 0 C2.33 0.66 2.66 1.32 3 2 C5.02463255 2.65213292 5.02463255 2.65213292 7 3 C7 5.31 7 7.62 7 10 C6.34 10 5.68 10 5 10 C5 8.02 5 6.04 5 4 C4.01 4 3.02 4 2 4 C2 5.98 2 7.96 2 10 C1.34 10 0.68 10 0 10 C0 6.7 0 3.4 0 0 Z " fill="#5D8296" transform="translate(249,116)"/>
<path d="M0 0 C2.26274788 0.35355436 3.95088852 0.97544426 6 2 C6 2.99 6 3.98 6 5 C2.535 6.485 2.535 6.485 -1 8 C-2 7 -2 7 -2.1875 4.5625 C-2 2 -2 2 0 0 Z " fill="#969BA7" transform="translate(192,42)"/>
<path d="M0 0 C0.99 0 1.98 0 3 0 C3 4.29 3 8.58 3 13 C2.01 13 1.02 13 0 13 C0 8.71 0 4.42 0 0 Z " fill="#F8EDDE" transform="translate(212,37)"/>
<path d="M0 0 C0.94875 0.04125 1.8975 0.0825 2.875 0.125 C2.875 2.105 2.875 4.085 2.875 6.125 C2.215 5.135 1.555 4.145 0.875 3.125 C-0.115 3.125 -1.105 3.125 -2.125 3.125 C-2.125 4.115 -2.125 5.105 -2.125 6.125 C-1.135 6.785 -0.145 7.445 0.875 8.125 C-1 8.75 -1 8.75 -3.125 9.125 C-5.125 7.125 -5.125 7.125 -5.375 4.625 C-4.98192433 0.69424327 -3.8631953 0.15452781 0 0 Z " fill="#DBE8EF" transform="translate(239.125,95.875)"/>
<path d="M0 0 C0.94875 0.04125 1.8975 0.0825 2.875 0.125 C2.875 2.105 2.875 4.085 2.875 6.125 C2.215 5.135 1.555 4.145 0.875 3.125 C-0.115 3.125 -1.105 3.125 -2.125 3.125 C-2.125 4.115 -2.125 5.105 -2.125 6.125 C-1.135 6.785 -0.145 7.445 0.875 8.125 C-1 8.75 -1 8.75 -3.125 9.125 C-5.125 7.125 -5.125 7.125 -5.375 4.625 C-4.98192433 0.69424327 -3.8631953 0.15452781 0 0 Z " fill="#DBE8EF" transform="translate(559.125,47.875)"/>
<path d="M0 0 C1.875 0.125 1.875 0.125 4 1 C5.40666215 4.01427603 6.14845728 6.05977053 5.625 9.375 C5.41875 9.91125 5.2125 10.4475 5 11 C4.34 11 3.68 11 3 11 C2.49384702 9.73160474 1.99530901 8.46016898 1.5 7.1875 C1.2215625 6.47980469 0.943125 5.77210937 0.65625 5.04296875 C0 3 0 3 0 0 Z " fill="#E3F2F7" transform="translate(142,37)"/>
<path d="M0 0 C0.33 0 0.66 0 1 0 C1 5.94 1 11.88 1 18 C-1.98422449 13.52366326 -2.43829217 10.33085592 -2 5 C-1 2 -1 2 0 0 Z " fill="#06085F" transform="translate(1796,709)"/>
<path d="M0 0 C0.66 0 1.32 0 2 0 C2 1.98 2 3.96 2 6 C2.99 6 3.98 6 5 6 C5 4.02 5 2.04 5 0 C5.66 0 6.32 0 7 0 C7 2.64 7 5.28 7 8 C5.00045254 8.04254356 2.99958364 8.04080783 1 8 C0 7 0 7 -0.0625 3.4375 C-0.041875 2.303125 -0.02125 1.16875 0 0 Z " fill="#71909A" transform="translate(186,118)"/>
<path d="M0 0 C2.97 0.495 2.97 0.495 6 1 C6 2.32 6 3.64 6 5 C6.66 5.33 7.32 5.66 8 6 C4.7 6 1.4 6 -2 6 C-1.34 5.67 -0.68 5.34 0 5 C0 3.35 0 1.7 0 0 Z " fill="#383E45" transform="translate(122,123)"/>
<path d="M0 0 C0.66 0 1.32 0 2 0 C2 1.32 2 2.64 2 4 C3.32 4 4.64 4 6 4 C6 4.66 6 5.32 6 6 C4.68 6 3.36 6 2 6 C2 7.32 2 8.64 2 10 C1.34 10 0.68 10 0 10 C0 8.68 0 7.36 0 6 C-1.32 6 -2.64 6 -4 6 C-4 5.34 -4 4.68 -4 4 C-2.68 4 -1.36 4 0 4 C0 2.68 0 1.36 0 0 Z " fill="#ECEEF1" transform="translate(377,37)"/>
<path d="M0 0 C6.460199 -0.36567164 6.460199 -0.36567164 8.9375 1.3125 C10 3 10 3 10 6 C8.68 6 7.36 6 6 6 C5.34 5.01 4.68 4.02 4 3 C1.41619823 2.74969023 1.41619823 2.74969023 -1 3 C-0.67 2.01 -0.34 1.02 0 0 Z " fill="#DFDDD7" transform="translate(103,33)"/>
<path d="M0 0 C0.33 0.99 0.66 1.98 1 3 C1.99 3 2.98 3 4 3 C4 3.66 4 4.32 4 5 C2.68 5 1.36 5 0 5 C0 5.99 0 6.98 0 8 C1.65 8 3.3 8 5 8 C5.33 7.34 5.66 6.68 6 6 C5.67 7.32 5.34 8.64 5 10 C3.02 10 1.04 10 -1 10 C-2.15837626 5.94568308 -1.83691257 3.78187881 0 0 Z " fill="#CBD5D7" transform="translate(513,786)"/>
<path d="M0 0 C2.31 0.66 4.62 1.32 7 2 C7 1.34 7 0.68 7 0 C7.99 0.33 8.98 0.66 10 1 C10 1.99 10 2.98 10 4 C7.03 4 4.06 4 1 4 C1 4.66 1 5.32 1 6 C0.34 6 -0.32 6 -1 6 C-1.042721 4.33388095 -1.04063832 2.66617115 -1 1 C-0.67 0.67 -0.34 0.34 0 0 Z " fill="#F5F6F5" transform="translate(157,40)"/>
<path d="M0 0 C2.625 0.25 2.625 0.25 4.4375 1.3125 C6.23342137 4.24268751 5.81477574 6.8972953 5.625 10.25 C4.635 9.92 3.645 9.59 2.625 9.25 C2.315625 8.280625 2.00625 7.31125 1.6875 6.3125 C0.94031979 3.14495953 0.94031979 3.14495953 -1.5 1.875 C-2.11875 1.66875 -2.7375 1.4625 -3.375 1.25 C-2.375 0.25 -2.375 0.25 0 0 Z " fill="#F2EFE4" transform="translate(121.375,36.75)"/>
<path d="M0 0 C1.65 0.33 3.3 0.66 5 1 C3.68 1.33 2.36 1.66 1 2 C1 2.66 1 3.32 1 4 C2.65 4.33 4.3 4.66 6 5 C5.67 6.32 5.34 7.64 5 9 C3.35 9 1.7 9 0 9 C-0.33 8.34 -0.66 7.68 -1 7 C1.475 7.495 1.475 7.495 4 8 C4 7.34 4 6.68 4 6 C1.525 5.01 1.525 5.01 -1 4 C-0.67 2.68 -0.34 1.36 0 0 Z " fill="#738794" transform="translate(449,858)"/>
<path d="M0 0 C1.15048828 -0.03867187 1.15048828 -0.03867187 2.32421875 -0.078125 C3.30841797 0.08429687 3.30841797 0.08429687 4.3125 0.25 C4.9725 1.24 5.6325 2.23 6.3125 3.25 C5.9825 4.24 5.6525 5.23 5.3125 6.25 C4.77109375 5.76917969 4.2296875 5.28835938 3.671875 4.79296875 C0.83352712 2.93676442 -1.07542626 2.76262344 -4.4375 2.5625 C-5.91476563 2.46388672 -5.91476563 2.46388672 -7.421875 2.36328125 C-8.54335938 2.30720703 -8.54335938 2.30720703 -9.6875 2.25 C-9.6875 1.92 -9.6875 1.59 -9.6875 1.25 C-6.45795351 0.41656865 -3.32170868 0.10715189 0 0 Z " fill="#0D0E55" transform="translate(42.6875,861.75)"/>
<path d="M0 0 C1.98 0 3.96 0 6 0 C6 0.66 6 1.32 6 2 C5.01 2.495 5.01 2.495 4 3 C3.34227572 6.02934491 3.34227572 6.02934491 3 9 C2.01 9 1.02 9 0 9 C0 6.03 0 3.06 0 0 Z " fill="#CAD5D6" transform="translate(183,96)"/>
<path d="M0 0 C1.98 0 3.96 0 6 0 C6 0.66 6 1.32 6 2 C5.01 2.495 5.01 2.495 4 3 C3.34227572 6.02934491 3.34227572 6.02934491 3 9 C2.01 9 1.02 9 0 9 C0 6.03 0 3.06 0 0 Z " fill="#CAD5D6" transform="translate(503,48)"/>
<path d="M0 0 C1.65 0 3.3 0 5 0 C5 2.31 5 4.62 5 7 C3.35 6.67 1.7 6.34 0 6 C0 4.02 0 2.04 0 0 Z " fill="#0D0F20" transform="translate(118,40)"/>
<path d="M0 0 C3.3 0 6.6 0 10 0 C6.19409895 2.85442578 3.32409846 4.25372947 -1 6 C-0.67 4.02 -0.34 2.04 0 0 Z " fill="#E6E8EC" transform="translate(1799,866)"/>
<path d="M0 0 C3.63 1.65 7.26 3.3 11 5 C11 5.33 11 5.66 11 6 C7.7 6 4.4 6 1 6 C0.67 4.02 0.34 2.04 0 0 Z " fill="#E7E9EC" transform="translate(1798,858)"/>
<path d="M0 0 C2.31 0 4.62 0 7 0 C6.67 1.65 6.34 3.3 6 5 C4.35 5 2.7 5 1 5 C0.67 3.35 0.34 1.7 0 0 Z " fill="#8C8E9D" transform="translate(1739,711)"/>
<path d="M0 0 C2.64 0 5.28 0 8 0 C8.33 0.66 8.66 1.32 9 2 C8.01 2.99 7.02 3.98 6 5 C5.67 4.34 5.34 3.68 5 3 C2.69 3.33 0.38 3.66 -2 4 C-1.34 2.68 -0.68 1.36 0 0 Z " fill="#D6DCDD" transform="translate(192,37)"/>
<path d="M0 0 C0.99 0 1.98 0 3 0 C3 3.96 3 7.92 3 12 C2.34 12 1.68 12 1 12 C0.67 9.36 0.34 6.72 0 4 C-0.66 4 -1.32 4 -2 4 C-1.34 2.68 -0.68 1.36 0 0 Z " fill="#BBD7DC" transform="translate(527,784)"/>
<path d="M0 0 C1.32 0 2.64 0 4 0 C4 2.64 4 5.28 4 8 C2.68 8 1.36 8 0 8 C0 5.36 0 2.72 0 0 Z " fill="#2C3244" transform="translate(503,786)"/>
<path d="M0 0 C3 1 3 1 4 3 C4.66 2.01 5.32 1.02 6 0 C6.66 0 7.32 0 8 0 C6.125 5.75 6.125 5.75 5 8 C4.01 7.67 3.02 7.34 2 7 C0.8125 3.4375 0.8125 3.4375 0 0 Z " fill="#6D8592" transform="translate(194,118)"/>
<path d="M0 0 C1.65 0.33 3.3 0.66 5 1 C4.67 2.65 4.34 4.3 4 6 C2.35 5.67 0.7 5.34 -1 5 C-0.67 3.35 -0.34 1.7 0 0 Z " fill="#1E2431" transform="translate(35,98)"/>
<path d="M0 0 C0.99 0.495 0.99 0.495 2 1 C2 3.64 2 6.28 2 9 C3.98 9 5.96 9 8 9 C7.67 9.66 7.34 10.32 7 11 C4.69 11 2.38 11 0 11 C0 7.37 0 3.74 0 0 Z " fill="#E0F2F8" transform="translate(162,94)"/>
<path d="M0 0 C0.99 0.495 0.99 0.495 2 1 C2 3.64 2 6.28 2 9 C3.98 9 5.96 9 8 9 C7.67 9.66 7.34 10.32 7 11 C4.69 11 2.38 11 0 11 C0 7.37 0 3.74 0 0 Z " fill="#E0F2F8" transform="translate(482,46)"/>
<path d="M0 0 C1.5625 1.1875 1.5625 1.1875 3 3 C2.73904456 5.67479327 2.1995243 7.60095141 1 10 C1.99 10 2.98 10 4 10 C4 10.66 4 11.32 4 12 C2.35 11.67 0.7 11.34 -1 11 C-0.835 9.9275 -0.67 8.855 -0.5 7.75 C0.08810915 3.96971248 0.08810915 3.96971248 0 0 Z " fill="#E7EAED" transform="translate(1795,46)"/>
<path d="M0 0 C1.65 0 3.3 0 5 0 C5.66 1.32 6.32 2.64 7 4 C6.01 3.67 5.02 3.34 4 3 C4 3.66 4 4.32 4 5 C2.02 5 0.04 5 -2 5 C-1.34 3.35 -0.68 1.7 0 0 Z " fill="#9B999A" transform="translate(160,37)"/>
<path d="M0 0 C0.33 0 0.66 0 1 0 C1 1.65 1 3.3 1 5 C-1.57667134 6.21676146 -3.37782003 7.05184833 -6.25 6.8125 C-6.8275 6.544375 -7.405 6.27625 -8 6 C-8.33 5.01 -8.66 4.02 -9 3 C-6.03 3 -3.06 3 0 3 C0 2.01 0 1.02 0 0 Z " fill="#433A3C" transform="translate(167,41)"/>
<path d="M0 0 C2.27734375 -0.328125 2.27734375 -0.328125 4.9375 -0.25 C6.25041016 -0.22679687 6.25041016 -0.22679687 7.58984375 -0.203125 C10 0 10 0 13 1 C12.67 1.66 12.34 2.32 12 3 C7.38 3 2.76 3 -2 3 C-1.34 2.01 -0.68 1.02 0 0 Z " fill="#000131" transform="translate(35,860)"/>
<path d="M0 0 C0.99 0 1.98 0 3 0 C3 3.96 3 7.92 3 12 C2.34 12 1.68 12 1 12 C0.67 9.03 0.34 6.06 0 3 C-0.99 3.495 -0.99 3.495 -2 4 C-1.34 2.68 -0.68 1.36 0 0 Z " fill="#DCDDCA" transform="translate(534,784)"/>
<path d="M0 0 C0.66 1.32 1.32 2.64 2 4 C2.33 4.33 2.66 4.66 3 5 C3.14115161 7.67058851 3.04247107 10.32432238 3 13 C2.01 13 1.02 13 0 13 C0 8.71 0 4.42 0 0 Z " fill="#E6FAF2" transform="translate(129,37)"/>
<path d="M0 0 C2.64 0 5.28 0 8 0 C8 1.65 8 3.3 8 5 C5.69 5 3.38 5 1 5 C1 4.01 1 3.02 1 2 C2.2065625 2.0309375 2.2065625 2.0309375 3.4375 2.0625 C5.93354885 2.29633621 5.93354885 2.29633621 7 1 C4.69 1 2.38 1 0 1 C0 0.67 0 0.34 0 0 Z " fill="#37388F" transform="translate(36,873)"/>
<path d="M0 0 C0 0.66 0 1.32 0 2 C-0.928125 2.185625 -0.928125 2.185625 -1.875 2.375 C-4.19120832 2.87197356 -4.19120832 2.87197356 -6 5 C-6.33 4.34 -6.66 3.68 -7 3 C-9.02463255 2.34786708 -9.02463255 2.34786708 -11 2 C-11 1.34 -11 0.68 -11 0 C-7.18243176 -1.37432457 -3.92744671 -0.67975039 0 0 Z " fill="#101729" transform="translate(461,860)"/>
<path d="M0 0 C0.99 0 1.98 0 3 0 C3 3.96 3 7.92 3 12 C2.34 12 1.68 12 1 12 C0.92652344 11.04287109 0.92652344 11.04287109 0.8515625 10.06640625 C0.77679687 9.24011719 0.70203125 8.41382813 0.625 7.5625 C0.55539062 6.73878906 0.48578125 5.91507813 0.4140625 5.06640625 C0.27742188 4.38449219 0.14078125 3.70257812 0 3 C-0.66 2.67 -1.32 2.34 -2 2 C-1.34 1.34 -0.68 0.68 0 0 Z " fill="#515572" transform="translate(1761,704)"/>
<path d="M0 0 C0.99 0.33 1.98 0.66 3 1 C3 4.27275026 2.70074844 6.846632 2 10 C0.35 9.67 -1.3 9.34 -3 9 C-1.68 8.67 -0.36 8.34 1 8 C0.34 7.01 -0.32 6.02 -1 5 C-0.625 2.3125 -0.625 2.3125 0 0 Z " fill="#E3E6E9" transform="translate(1811,48)"/>
<path d="M0 0 C0.33 0 0.66 0 1 0 C1 4.29 1 8.58 1 13 C0.67 12.01 0.34 11.02 0 10 C-0.66 10 -1.32 10 -2 10 C-2 7.36 -2 4.72 -2 2 C-1.34 2 -0.68 2 0 2 C0 1.34 0 0.68 0 0 Z " fill="#24161C" transform="translate(210,37)"/>
<path d="M0 0 C0.33 1.32 0.66 2.64 1 4 C-0.45742463 4.08096803 -1.91612807 4.13917774 -3.375 4.1875 C-4.18710937 4.22230469 -4.99921875 4.25710938 -5.8359375 4.29296875 C-6.55007813 4.19628906 -7.26421875 4.09960938 -8 4 C-8.66 3.01 -9.32 2.02 -10 1 C-6.7 0.67 -3.4 0.34 0 0 Z " fill="#7E9EB0" transform="translate(475,793)"/>
<path d="M0 0 C3.875 1.875 3.875 1.875 5 3 C5.1875 5.4375 5.1875 5.4375 5 8 C4.34 8.66 3.68 9.32 3 10 C2.01 10 1.02 10 0 10 C0.33 9.01 0.66 8.02 1 7 C1.66 7 2.32 7 3 7 C2.505 6.21625 2.01 5.4325 1.5 4.625 C0 2 0 2 0 0 Z " fill="#CACDD1" transform="translate(43,96)"/>
<path d="M0 0 C0.33 1.32 0.66 2.64 1 4 C-0.45742463 4.08096803 -1.91612807 4.13917774 -3.375 4.1875 C-4.18710937 4.22230469 -4.99921875 4.25710937 -5.8359375 4.29296875 C-6.55007813 4.19628906 -7.26421875 4.09960938 -8 4 C-8.66 3.01 -9.32 2.02 -10 1 C-6.7 0.67 -3.4 0.34 0 0 Z " fill="#7E9EB0" transform="translate(472,46)"/>
<path d="M0 0 C1.65 0.33 3.3 0.66 5 1 C5 1.99 5 2.98 5 4 C5.99 4.33 6.98 4.66 8 5 C4.7 5 1.4 5 -2 5 C-1.34 4.67 -0.68 4.34 0 4 C0 2.68 0 1.36 0 0 Z " fill="#3D444B" transform="translate(457,809)"/>
<path d="M0 0 C0.99 0 1.98 0 3 0 C3 2.97 3 5.94 3 9 C2.01 9 1.02 9 0 9 C0 6.03 0 3.06 0 0 Z " fill="#CAD7D8" transform="translate(244,96)"/>
<path d="M0 0 C1.32 0 2.64 0 4 0 C4 1.98 4 3.96 4 6 C2.68 6.33 1.36 6.66 0 7 C0 4.69 0 2.38 0 0 Z " fill="#020C22" transform="translate(165,96)"/>
<path d="M0 0 C0.66 0 1.32 0 2 0 C2 3.96 2 7.92 2 12 C1.01 12 0.02 12 -1 12 C-0.67 8.04 -0.34 4.08 0 0 Z " fill="#EBF5E8" transform="translate(221,93)"/>
<path d="M0 0 C1.65 0.33 3.3 0.66 5 1 C5 1.99 5 2.98 5 4 C5.99 4.33 6.98 4.66 8 5 C4.7 5 1.4 5 -2 5 C-1.34 4.67 -0.68 4.34 0 4 C0 2.68 0 1.36 0 0 Z " fill="#3D444B" transform="translate(454,62)"/>
<path d="M0 0 C0.99 0 1.98 0 3 0 C3 2.97 3 5.94 3 9 C2.01 9 1.02 9 0 9 C0 6.03 0 3.06 0 0 Z " fill="#CAD7D8" transform="translate(564,48)"/>
<path d="M0 0 C1.32 0 2.64 0 4 0 C4 1.98 4 3.96 4 6 C2.68 6.33 1.36 6.66 0 7 C0 4.69 0 2.38 0 0 Z " fill="#020C22" transform="translate(485,48)"/>
<path d="M0 0 C0.66 0 1.32 0 2 0 C2 3.96 2 7.92 2 12 C1.01 12 0.02 12 -1 12 C-0.67 8.04 -0.34 4.08 0 0 Z " fill="#EBF5E8" transform="translate(541,45)"/>
<path d="M0 0 C0.556875 0.61875 1.11375 1.2375 1.6875 1.875 C4.06645178 4.06106379 5.96357096 4.98785699 9 6 C8.67 6.66 8.34 7.32 8 8 C5.61435923 7.42415568 3.33317216 6.77772405 1 6 C0.67 6.66 0.34 7.32 0 8 C0 5.36 0 2.72 0 0 Z " fill="#0F1737" transform="translate(244,40)"/>
<path d="M0 0 C0.66 0.33 1.32 0.66 2 1 C1.67 1.33 1.34 1.66 1 2 C0.72046781 4.0587768 0.55265649 6.11728432 0.37890625 8.1875 C0.25386719 8.785625 0.12882812 9.38375 0 10 C-0.99 10.495 -0.99 10.495 -2 11 C-3.39935013 8.20129973 -3.25265405 6.09501208 -3 3 C-1.5 1.125 -1.5 1.125 0 0 Z " fill="#C4E2F5" transform="translate(117,37)"/>
<path d="M0 0 C2.97 0.495 2.97 0.495 6 1 C6 1.66 6 2.32 6 3 C8.31 3 10.62 3 13 3 C13 3.33 13 3.66 13 4 C8.71 4 4.42 4 0 4 C0 2.68 0 1.36 0 0 Z " fill="#628398" transform="translate(444,793)"/>
<path d="M0 0 C0.66 0 1.32 0 2 0 C2 0.66 2 1.32 2 2 C3.65 2 5.3 2 7 2 C7 1.34 7 0.68 7 0 C7.66 0 8.32 0 9 0 C9 1.32 9 2.64 9 4 C6.03 4 3.06 4 0 4 C0 2.68 0 1.36 0 0 Z " fill="#C0C1DC" transform="translate(1800,714)"/>
<path d="M0 0 C0.66 0.99 1.32 1.98 2 3 C1.125 5.6875 1.125 5.6875 0 8 C-1.98 8 -3.96 8 -6 8 C-6.33 7.01 -6.66 6.02 -7 5 C-5.02 5 -3.04 5 -1 5 C-0.67 3.35 -0.34 1.7 0 0 Z " fill="#D0DADA" transform="translate(1746,679)"/>
<path d="M0 0 C2.97 0.495 2.97 0.495 6 1 C6 1.66 6 2.32 6 3 C8.31 3 10.62 3 13 3 C13 3.33 13 3.66 13 4 C8.71 4 4.42 4 0 4 C0 2.68 0 1.36 0 0 Z " fill="#628398" transform="translate(441,46)"/>
<path d="M0 0 C0.66 1.32 1.32 2.64 2 4 C1 5 1 5 -0.84765625 5.09765625 C-2.8984375 5.06510417 -4.94921875 5.03255208 -7 5 C-7 4.01 -7 3.02 -7 2 C-4.69 2.33 -2.38 2.66 0 3 C0 2.01 0 1.02 0 0 Z " fill="#0C0F79" transform="translate(1809,720)"/>
<path d="M0 0 C1.65 0 3.3 0 5 0 C4.67 1.98 4.34 3.96 4 6 C2.68 6 1.36 6 0 6 C0 4.02 0 2.04 0 0 Z " fill="#404D62" transform="translate(227,118)"/>
<path d="M0 0 C0.99 0 1.98 0 3 0 C3 0.99 3 1.98 3 3 C2.34 3 1.68 3 1 3 C1.33 3.66 1.66 4.32 2 5 C2.04022391 7.3329866 2.04320247 9.66706666 2 12 C1.34 12 0.68 12 0 12 C0 8.04 0 4.08 0 0 Z " fill="#D4ECF4" transform="translate(213,93)"/>
<path d="M0 0 C0.99 0 1.98 0 3 0 C3 0.99 3 1.98 3 3 C2.34 3 1.68 3 1 3 C1.33 3.66 1.66 4.32 2 5 C2.04022391 7.3329866 2.04320247 9.66706666 2 12 C1.34 12 0.68 12 0 12 C0 8.04 0 4.08 0 0 Z " fill="#D4ECF4" transform="translate(533,45)"/>
<path d="M0 0 C3.91211733 1.15585285 6.8745041 2.35534962 10 5 C7 6 7 6 4.95703125 5.22265625 C4.24933594 4.83980469 3.54164062 4.45695313 2.8125 4.0625 C2.09707031 3.68222656 1.38164063 3.30195312 0.64453125 2.91015625 C0.10183594 2.60980469 -0.44085937 2.30945313 -1 2 C-0.67 1.34 -0.34 0.68 0 0 Z " fill="#32394A" transform="translate(1802,858)"/>
<path d="M0 0 C-0.33 1.65 -0.66 3.3 -1 5 C-1.66 4.01 -2.32 3.02 -3 2 C-5.89932357 4.39509338 -6.50168276 6.31245243 -7 10 C-7.33 10 -7.66 10 -8 10 C-8.32899743 6.38102827 -8.44576634 4.60496861 -6.25 1.625 C-4 0 -4 0 0 0 Z " fill="#DFE2E5" transform="translate(40,814)"/>
<path d="M0 0 C1.32 0 2.64 0 4 0 C4 1.98 4 3.96 4 6 C2.68 6 1.36 6 0 6 C0 4.02 0 2.04 0 0 Z " fill="#0A0B1F" transform="translate(164,118)"/>
<path d="M0 0 C0.66 0 1.32 0 2 0 C1.67 1.65 1.34 3.3 1 5 C-1.64 5.33 -4.28 5.66 -7 6 C-6.67 5.01 -6.34 4.02 -6 3 C-5.195625 2.87625 -4.39125 2.7525 -3.5625 2.625 C-2.716875 2.41875 -1.87125 2.2125 -1 2 C-0.67 1.34 -0.34 0.68 0 0 Z " fill="#D5D9DD" transform="translate(1801,41)"/>
<path d="M0 0 C1.65 0 3.3 0 5 0 C5 0.66 5 1.32 5 2 C5.99 2 6.98 2 8 2 C7.34 3.32 6.68 4.64 6 6 C3.97945196 4.35830472 1.97956942 2.69088222 0 1 C0 0.67 0 0.34 0 0 Z " fill="#6D7B82" transform="translate(109,121)"/>
<path d="M0 0 C1.98 0.495 1.98 0.495 4 1 C3.01 1 2.02 1 1 1 C1.185625 1.804375 1.37125 2.60875 1.5625 3.4375 C1.706875 4.283125 1.85125 5.12875 2 6 C1.67 6.33 1.34 6.66 1 7 C0.63239269 9.32817964 0.29758419 11.6618385 0 14 C-0.33 14 -0.66 14 -1 14 C-1.02705729 12.22925083 -1.04642195 10.45838289 -1.0625 8.6875 C-1.07410156 7.70136719 -1.08570313 6.71523438 -1.09765625 5.69921875 C-1 3 -1 3 0 0 Z " fill="#766D44" transform="translate(141,36)"/>
<path d="M0 0 C0.33 0.66 0.66 1.32 1 2 C2.65 2 4.3 2 6 2 C6 1.34 6 0.68 6 0 C6.66 0 7.32 0 8 0 C8 1.32 8 2.64 8 4 C5.36 4 2.72 4 0 4 C0 2.68 0 1.36 0 0 Z " fill="#A1A4CA" transform="translate(36,868)"/>
<path d="M0 0 C2.00720923 0.28674418 4.0085944 0.61866701 6 1 C5.67 1.99 5.34 2.98 5 4 C3.35 4 1.7 4 0 4 C-0.33 3.01 -0.66 2.02 -1 1 C-0.67 0.67 -0.34 0.34 0 0 Z " fill="#969AA4" transform="translate(512,759)"/>
<path d="M0 0 C2.64 0 5.28 0 8 0 C7.67 0.99 7.34 1.98 7 3 C5.02 3 3.04 3 1 3 C0.67 2.01 0.34 1.02 0 0 Z " fill="#B0C7D0" transform="translate(107,117)"/>
<path d="M0 0 C0.598125 0.763125 1.19625 1.52625 1.8125 2.3125 C3.46959332 4.3483575 5.10297674 6.1978279 7 8 C6.01 8.495 6.01 8.495 5 9 C3.02 7.35 1.04 5.7 -1 4 C-0.67 2.68 -0.34 1.36 0 0 Z " fill="#C7CACF" transform="translate(369,44)"/>
<path d="M0 0 C0.66 0 1.32 0 2 0 C1.67 2.31 1.34 4.62 1 7 C-0.32 7 -1.64 7 -3 7 C-2.1654738 4.49642139 -1.20628008 2.33214148 0 0 Z " fill="#EBF2EF" transform="translate(149,43)"/>
<path d="M0 0 C3.42353587 1.21480305 5.01180815 3.01771223 7 6 C6.67 6.66 6.34 7.32 6 8 C5.236875 7.21625 4.47375 6.4325 3.6875 5.625 C1.09108195 2.92742283 1.09108195 2.92742283 -2 1 C-1.34 0.67 -0.68 0.34 0 0 Z " fill="#C7CACF" transform="translate(382,32)"/>
<path d="M0 0 C-2.85306797 2.32472205 -5.54074837 3.7508258 -9 5 C-9 4.01 -9 3.02 -9 2 C-3.375 -1.125 -3.375 -1.125 0 0 Z " fill="#343B4B" transform="translate(1810,868)"/>
<path d="M0 0 C0.99 0 1.98 0 3 0 C3 1.65 3 3.3 3 5 C1.68 5 0.36 5 -1 5 C-0.67 3.35 -0.34 1.7 0 0 Z " fill="#3C3343" transform="translate(530,761)"/>
<path d="M0 0 C1.32 0 2.64 0 4 0 C3.25 2.4375 3.25 2.4375 2 5 C-0.125 5.8125 -0.125 5.8125 -2 6 C-1.34 4.02 -0.68 2.04 0 0 Z " fill="#E7E4D9" transform="translate(109,44)"/>
<path d="M0 0 C2.375 -0.1875 2.375 -0.1875 5 0 C5.66 0.99 6.32 1.98 7 3 C3 3 3 3 0 2 C-0.33 2.99 -0.66 3.98 -1 5 C-0.67 3.35 -0.34 1.7 0 0 Z " fill="#EAE5D7" transform="translate(249,37)"/>
<path d="M0 0 C0 0.99 0 1.98 0 3 C-1 4 -1 4 -3.72265625 4.09765625 C-5.37587891 4.08025391 -5.37587891 4.08025391 -7.0625 4.0625 C-8.16722656 4.05347656 -9.27195312 4.04445313 -10.41015625 4.03515625 C-11.69212891 4.01775391 -11.69212891 4.01775391 -13 4 C-13 3.67 -13 3.34 -13 3 C-12.39671875 2.95101562 -11.7934375 2.90203125 -11.171875 2.8515625 C-10.37265625 2.77679687 -9.5734375 2.70203125 -8.75 2.625 C-7.56664062 2.52058594 -7.56664062 2.52058594 -6.359375 2.4140625 C-3.914123 1.98492887 -2.15163097 1.21399362 0 0 Z " fill="#0B0C61" transform="translate(1813,724)"/>
<path d="M0 0 C1.32 0 2.64 0 4 0 C4 0.66 4 1.32 4 2 C3.34 2 2.68 2 2 2 C2 3.98 2 5.96 2 8 C1.34 8 0.68 8 0 8 C0 5.36 0 2.72 0 0 Z " fill="#7C8A8C" transform="translate(181,118)"/>
<path d="M0 0 C2.0625 0.4375 2.0625 0.4375 4 1 C4 3.31 4 5.62 4 8 C3.34 8 2.68 8 2 8 C2 6.02 2 4.04 2 2 C1.01 1.67 0.02 1.34 -1 1 C-0.67 0.67 -0.34 0.34 0 0 Z " fill="#7B95A0" transform="translate(175,118)"/>
<path d="M0 0 C0.66 0 1.32 0 2 0 C2.144375 1.11375 2.28875 2.2275 2.4375 3.375 C2.78372035 6.82142047 2.78372035 6.82142047 4 9 C2.68 8.67 1.36 8.34 0 8 C0 5.36 0 2.72 0 0 Z " fill="#E9F6EF" transform="translate(190,96)"/>
<path d="M0 0 C0.66 0 1.32 0 2 0 C2.144375 1.11375 2.28875 2.2275 2.4375 3.375 C2.78372035 6.82142047 2.78372035 6.82142047 4 9 C2.68 8.67 1.36 8.34 0 8 C0 5.36 0 2.72 0 0 Z " fill="#E9F6EF" transform="translate(510,48)"/>
<path d="M0 0 C1.65 0.33 3.3 0.66 5 1 C5.33 2.32 5.66 3.64 6 5 C5.34 5 4.68 5 4 5 C3.67 4.34 3.34 3.68 3 3 C1.68 3.33 0.36 3.66 -1 4 C-0.67 2.68 -0.34 1.36 0 0 Z " fill="#E3E6E9" transform="translate(1802,47)"/>
<path d="M0 0 C2.31 0.33 4.62 0.66 7 1 C6.34 2.32 5.68 3.64 5 5 C3.35 3.35 1.7 1.7 0 0 Z " fill="#717F85" transform="translate(448,808)"/>
<path d="M0 0 C0.66 0 1.32 0 2 0 C1.67 0.99 1.34 1.98 1 3 C-3.04362487 4.8380113 -5.73449853 5.25455926 -10 4 C-10 3.67 -10 3.34 -10 3 C-8.72125 2.87625 -7.4425 2.7525 -6.125 2.625 C-2.65209064 2.30957601 -2.65209064 2.30957601 0 0 Z " fill="#D6D6E6" transform="translate(1812,722)"/>
<path d="M0 0 C1.32 0.33 2.64 0.66 4 1 C4 3.31 4 5.62 4 8 C3.34 8 2.68 8 2 8 C2 6.02 2 4.04 2 2 C1.34 2 0.68 2 0 2 C0 1.34 0 0.68 0 0 Z " fill="#627683" transform="translate(252,118)"/>
<path d="M0 0 C3.875 1.875 3.875 1.875 5 3 C5.04063832 4.66617115 5.042721 6.33388095 5 8 C4.34 8 3.68 8 3 8 C1.92474806 5.34771188 0.90543849 2.71631546 0 0 Z " fill="#D9DBDF" transform="translate(46,108)"/>
<path d="M0 0 C2.31 0.33 4.62 0.66 7 1 C6.34 2.32 5.68 3.64 5 5 C3.35 3.35 1.7 1.7 0 0 Z " fill="#717F85" transform="translate(445,61)"/>
<path d="M0 0 C0.66 0 1.32 0 2 0 C2.66 2.64 3.32 5.28 4 8 C2.68 7.67 1.36 7.34 0 7 C0 4.69 0 2.38 0 0 Z " fill="#6A8EA5" transform="translate(186,118)"/>
<path d="M0 0 C1.32 0 2.64 0 4 0 C3.67 1.65 3.34 3.3 3 5 C2.01 4.67 1.02 4.34 0 4 C0 2.68 0 1.36 0 0 Z " fill="#0F0D24" transform="translate(274,120)"/>
<path d="M0 0 C0.99 0 1.98 0 3 0 C3 1.65 3 3.3 3 5 C1.68 4.67 0.36 4.34 -1 4 C-0.67 2.68 -0.34 1.36 0 0 Z " fill="#363232" transform="translate(237,98)"/>
<path d="M0 0 C0.99 0 1.98 0 3 0 C3.625 2.3125 3.625 2.3125 4 5 C3.01 6.485 3.01 6.485 2 8 C0.74335022 5.09399739 0 3.20395416 0 0 Z " fill="#C6CDC5" transform="translate(199,96)"/>
<path d="M0 0 C2.475 0.495 2.475 0.495 5 1 C5 1.99 5 2.98 5 4 C3.35 4 1.7 4 0 4 C0 2.68 0 1.36 0 0 Z " fill="#ABA9A9" transform="translate(227,96)"/>
<path d="M0 0 C0.99 0 1.98 0 3 0 C3 1.65 3 3.3 3 5 C1.68 4.67 0.36 4.34 -1 4 C-0.67 2.68 -0.34 1.36 0 0 Z " fill="#363232" transform="translate(557,50)"/>
<path d="M0 0 C0.99 0 1.98 0 3 0 C3.625 2.3125 3.625 2.3125 4 5 C3.01 6.485 3.01 6.485 2 8 C0.74335022 5.09399739 0 3.20395416 0 0 Z " fill="#C6CDC5" transform="translate(519,48)"/>
<path d="M0 0 C2.475 0.495 2.475 0.495 5 1 C5 1.99 5 2.98 5 4 C3.35 4 1.7 4 0 4 C0 2.68 0 1.36 0 0 Z " fill="#ABA9A9" transform="translate(547,48)"/>
<path d="M0 0 C1.65 0 3.3 0 5 0 C5.33 0.99 5.66 1.98 6 3 C4.35 3.66 2.7 4.32 1 5 C0.67 3.35 0.34 1.7 0 0 Z " fill="#E3E3E1" transform="translate(130,37)"/>
<path d="M0 0 C1.65 0 3.3 0 5 0 C5.33 1.32 5.66 2.64 6 4 C5.01 4.66 4.02 5.32 3 6 C3 4.68 3 3.36 3 2 C2.01 2 1.02 2 0 2 C0 1.34 0 0.68 0 0 Z " fill="#8097A9" transform="translate(118,110)"/>
<path d="M0 0 C2.29633824 3.44450737 2.54016485 5.93812283 3 10 C2.01 10 1.02 10 0 10 C0 6.7 0 3.4 0 0 Z " fill="#E1CAA9" transform="translate(145,38)"/>
<path d="M0 0 C0.66 0.66 1.32 1.32 2 2 C1.625 5.625 1.625 5.625 1 9 C-1 6 -1 6 -0.625 2.8125 C-0.41875 1.884375 -0.2125 0.95625 0 0 Z " fill="#E5CF9D" transform="translate(228,39)"/>
<path d="M0 0 C1.65 0 3.3 0 5 0 C5.33 0.99 5.66 1.98 6 3 C3.69 3 1.38 3 -1 3 C-0.67 2.01 -0.34 1.02 0 0 Z " fill="#E8E8E5" transform="translate(182,37)"/>
<path d="M0 0 C0 0.33 0 0.66 0 1 C-1.1446875 1.1546875 -1.1446875 1.1546875 -2.3125 1.3125 C-5.21894395 2.05600892 -6.03566029 2.84858032 -8 5 C-8.66 5 -9.32 5 -10 5 C-8.20177069 -0.39468792 -5.09771267 -0.22656501 0 0 Z " fill="#C0D4E1" transform="translate(108,32)"/>
</svg>
